<svg xmlns="http://www.w3.org/2000/svg" fill="none" viewBox="0 0 1919 318">
  <g fill="#6049EB" clip-path="url(#a)" opacity=".1">
    <path d="M505.299 429.616c3.907-2.362 8.083-4.368 11.647-7.161 7.024-5.512 13.72-11.411 20.506-17.22 9.082-7.77 18.597-14.887 29.946-19.121 5.905-2.214 11.856-2.927 17.747.015 6.74 3.372 9.947 9.285 11.513 16.283 2.207 9.806.462 19.448-2.118 28.808-5.056 18.334-10.872 36.46-16.106 54.75-5.101 17.828-8.441 36.029-9.62 54.526-.402 6.388.03 12.97 1.134 19.285 1.417 8.156 6.323 13.876 14.66 16.179 1.178.327 2.252.996 3.311 2.065-4.087 2.63-8.427 3.507-12.975 2.749-8.426-1.382-14.168-6.478-17.926-13.832-5.384-10.549-7.576-21.93-7.636-33.667-.089-21.543 4.146-42.388 10.962-62.742 4.161-12.406 8.873-24.648 12.885-37.099 2.103-6.522 3.281-13.327 4.832-20.027.238-1.04.253-2.155.253-3.224-.044-6.671-1.551-7.919-7.188-4.517-8.187 4.947-16.047 10.489-23.802 16.09-7.561 5.468-14.51 11.782-22.295 16.878-4.996 3.269-10.812 5.691-16.599 7.251-9.156 2.466-16.255-1.947-19.283-10.965-2.803-8.35-2.013-16.804-.238-25.198 3.564-16.937 11.543-31.943 21.147-46.102 7.65-11.292 16.33-21.9 23.817-33.295 10.871-16.522 13.287-35.034 10.842-54.319-.597-4.68-2.461-8.424-7.114-10.964-5.727-3.12-7.591-8.751-5.622-13.714 1.998-5.066 7.382-7.488 13.944-6.255.671.119 1.342.238 1.983.461 38.864 13.609 72.658 33.8 93.059 71.285 6.681 12.287 11.498 25.302 15.033 38.808.239.891.537 1.768 1.238 4.085.999-1.649 1.446-2.6 2.088-3.387 16.315-19.686 35.732-35.301 59.563-45.137 37.284-15.392 74.552-30.814 111.836-46.191 13.079-5.393 25.979-11.069 35.807-21.692 3.012-3.253 5.801-6.804 8.097-10.578 2.864-4.71 1.939-8.439-3.116-10.653-4.355-1.916-9.291-3.432-13.974-3.447-12.647-.029-25.099 1.575-36.657 7.474-1.641.847-4.743 1.084-5.876.104-1.208-1.04-1.775-4.25-1.059-5.795 1.223-2.674 3.192-5.749 5.667-6.983 16.822-8.29 34.375-12.272 52.987-6.641 2.923.892 5.757 2.452 8.277 4.205 9.515 6.611 12.706 16.907 6.98 26.936-4.146 7.265-9.769 13.892-15.63 19.953-8.455 8.766-19.133 14.605-30.274 19.359-29.379 12.54-58.878 24.797-88.287 37.277-11.707 4.978-23.473 9.866-34.882 15.497-24.279 11.975-43.547 29.566-57.222 52.951-2.133 3.655-3.177 7.963-4.683 11.975-.985 2.645-1.566 5.497-2.923 7.919-2.297 4.115-6.726 5.883-11.081 4.947-4.355-.921-7.725-4.323-8.157-8.973-.269-2.912 0-5.943.477-8.841 1.67-10.043.999-19.819-2.148-29.566-8.157-25.346-21.356-47.483-41.668-65.03-5.055-4.368-10.722-8.023-16.255-12.109-7.964 28.913-25.114 51.719-41.802 74.762-12.274 16.952-23.28 34.558-28.067 55.225-1.163 4.992-1.223 10.237-1.775 15.362.612.387 1.223.684 1.82.981ZM0 54.392c2.297-3.446 4.623-6.878 6.875-10.355 4.414-6.775 8.77-13.594 13.243-20.34 1.491-2.228 3.162-4.397 5.011-6.329 2.953-3.075 6.92-3.684 9.932-1.872 3.087 1.857 4.236 5.438 3.072 9.628-.208.772-.447 1.575-.85 2.273C24.89 48.82 12.438 70.23 0 91.64V54.392Zm433.186 189.01c1.562.504 2.798.952 4.068 1.311 17.692 4.986 31.81 15.619 44.084 28.684 9.857 10.499 14.792 23.441 16.096 37.783.247 2.701 1.573 5.3 1.809 8.001.382 4.392.337 8.84.337 13.255 0 .762-.629 1.524-1.056 2.499-.675-.516-1.068-.684-1.27-.986-4.406-6.342-8.711-12.763-13.196-19.049-12.757-17.95-29.898-26.522-52.154-23.9-13.375 1.569-26.717 3.631-40.138 4.74-28.044 2.308-52.255-6.992-72.06-26.5-15.129-14.914-19.794-33.884-16.5-54.557 2.945-18.499 10.43-35.385 21.895-50.187 19.322-24.931 58.46-45.828 101.071-34.163 28.19 7.709 48.051 41.626 38.126 71.577-4.091 12.359-10.779 22.981-20.389 31.777-3.44 3.148-6.924 6.275-10.723 9.715Zm31.101 34.656c-6.104-6.117-12.005-12.291-19.816-16.236-10.454-5.277-21.289-8.751-33.181-8.325-2.619.09-4.889-.885-5.463-3.843-.472-2.454 1.034-4.684 4.159-5.547 2.923-.817 5.98-1.434 9.003-1.591 2.912-.156 5.182-1.165 6.846-3.384 4.035-5.367 8.047-10.756 11.914-16.247 4.946-7.014 7.947-14.857 9.498-23.284 3.9-21.278-7.227-41.357-26.617-48.45-35.26-12.897-66.192 3.463-83.176 26.097-8.273 11.036-13.533 23.664-16.523 37.144-3.271 14.69-.798 28.606 8.936 39.979 12.51 14.6 28.718 23.228 48.332 24.629 11.521.829 22.784-1.289 34.114-2.768 17.377-2.286 34.821-5.871 51.974 1.826Z"/>
    <path d="M-14.472 145.963c0-1.931.015-3.491 0-5.066-.104-7.147-.537-14.308-.268-21.454.268-7.251 4.921-12.362 11.319-13.446 6.323-1.07 12.721 2.273 15.152 8.959 1.774 4.873 2.744 10.162 3.296 15.347 2.281 21.573-.239 42.849-4.937 63.902-.835 3.744-2.55 7.413-4.474 10.786-2.356 4.145-6.174 6.537-11.185 5.824-4.966-.713-8.56-3.982-9.112-8.617a130.722 130.722 0 0 1-.611-23.296c.283-4.398-.627-6.434-4.817-7.994-17.896-6.656-36.254-10.266-55.358-8.676-28.216 2.347-50.422 15.481-66.454 38.614-14.287 20.607-7.248 45.419 15.689 56.146 12.169 5.69 25.218 7.384 38.476 6.789 40.877-1.842 77.788-15.139 110.06-40.07 20.969-16.194 37.97-35.895 45.978-61.821 5.31-17.19 8.083-34.811 4.683-52.729-3.982-21.082-14.51-38.123-32.765-50.113-25.188-16.551-52.3-22.286-81.784-14.664-8.635 2.243-17.21 4.813-25.681 7.636-2.774.921-4.996 3.358-7.695 4.636-1.805.847-4.161 1.486-5.996 1.07-4.727-1.07-7.516-6.419-5.98-11.218a18.179 18.179 0 0 1 3.52-6.284c2.013-2.318 4.31-4.636 6.95-6.136C-42.45 14.728-7.24 6.542 30.67 22.766c29.663 12.703 52.36 32.151 63.874 63.07 8.381 22.508 7.277 45.195 2.505 68.195-7.427 35.731-27.903 63.262-55.328 85.875-37.418 30.843-81.025 47.335-129.254 51.688-15.421 1.397-30.677-.193-45.098-6.166-25.532-10.563-40.326-29.788-44.397-56.918-1.82-12.109 1.327-23.593 6.726-34.469 20.491-41.199 64.843-65.164 110.642-59.845 14.749 1.709 29.14 4.74 42.697 11.024.611.297 1.282.401 2.49.743ZM1126.97 381.892c.85-9.806 1.66-19.032 2.54-29.016a578.09 578.09 0 0 0-4.66 2.659c-6.86 3.937-13.99 7.147-21.99 7.86-12.56 1.129-19.02-5.364-17.72-17.77 1.55-14.723 7.8-27.515 16.93-38.837 13.15-16.328 21.44-34.899 26.85-54.897 1.2-4.398 1.88-8.989 2.18-13.535.32-4.963-1.13-6.344-6.01-5.349-8.99 1.828-18.4 3.031-26.69 6.656-12.34 5.393-24.03 12.347-35.62 19.27-6.95 4.145-12.08 10.4-15.03 18.126-2.37 6.21-1.49 8.38 3.94 12.183 1.58 1.099 2.49 3.15 3.71 4.754-1.79.981-3.49 2.541-5.4 2.868-14.97 2.555-25.02-6.493-23.87-21.573.86-11.396 5.75-21.29 14.05-28.897 23.22-21.291 50.33-34.35 82.18-36.609.81-.059 1.63-.03 2.45-.03 17.64.06 28.42 10.43 27.87 28.081-.24 7.562-1.95 15.288-4.22 22.553-6.47 20.756-15.9 40.041-29.41 57.364-5.16 6.612-8.6 14.575-12.69 22.004-.8 1.471-1.04 3.254-1.8 5.735 2.35-.669 4.16-.773 5.51-1.62 6.27-3.952 12.49-7.993 18.54-12.242 2.3-1.62 4.15-3.863 6.19-5.839 4.16-4.012 8.1-5.022 12.07-3.105 4.04 1.946 5.47 6.002 4.96 11.782-1.8 20.146-3.55 40.307-5.04 60.484-.64 8.721-6.32 13.564-14.75 11.202-22.55-6.329-44.42-3.477-65.62 5.081-21.71 8.766-41.59 20.845-59.52 35.97-2.55 2.154-4.87 4.591-7.632 7.22 1.592.951 2.702 1.605 3.792 2.244-1.52 5.809-8.31 8.379-13.918 5.155-4.981-2.852-7.352-7.517-6.353-12.97.805-4.398 2.327-9.048 4.877-12.658 3.773-5.349 8.098-10.683 13.284-14.605 25.4-19.196 52.84-34.335 84.85-39.684 11.97-2.006 23.96-2.377 36.01-.639 1.52.253 3.12.401 5.16.624Zm604.76-49.905c2.33-3.64 4.27-6.686 6.21-9.717 1.24-1.931 2.4-3.922 3.71-5.794 8.29-11.886 17.38-14.842 30.93-9.791 5.33 1.991 10.4 4.606 15.63 6.805 13.3 5.616 25.32 1.471 31.66-11.485 6.89-14.085 9.5-29.076 6.22-44.512-7.01-33.058-27.07-56.087-56.74-71.345-5.89-3.031-12.08-5.497-17.99-8.499-2.62-1.337-5.03-3.194-7.31-5.096-4.61-3.818-4.58-9.152.75-11.871 4.17-2.124 9.32-3.862 13.87-3.521 46.38 3.403 82.3 30.279 90.52 74.272 4.71 25.257 2.36 50.024-6.77 74.049-6.01 15.838-16.67 26.936-33.51 31.438-8.96 2.392-17.81 1.441-26.4-1.486-6.38-2.184-12.63-4.858-18.79-7.652-2.84-1.292-4.53-.787-5.99 1.768-2.79 4.933-5.49 9.94-8.5 14.739-10.67 17.056-23.61 18.051-36.88 2.867-3.72-4.249-7.22-8.676-11.28-13.55-2.07 3.165-3.92 5.914-5.68 8.722-6.53 10.43-14.29 19.73-25.02 26.104-3.69 2.199-7.64 4.205-11.73 5.438-9.24 2.793-17.76-.58-22.71-8.87-6.44-10.801-7.4-22.405-3.95-34.365 1.25-4.368 4.2-6.552 7.87-6.27 4.22.312 6.1 3.195 6.92 6.849 1.35 5.914 2.27 11.931 3.81 17.799 1.31 5.022 2.28 5.23 6.65 2.437 6.65-4.249 11.51-10.162 15.61-16.789 3.55-5.735 6.82-11.692 10.78-17.145 12.14-16.7 26.13-16.685 38.38-.104 3.29 4.457 6.16 9.197 9.73 14.575Z"/>
    <path d="M1742.28 284.445c-.11.705-.32 2.39-.65 5.055-.13 1.413-.48 2.463-1.06 3.152-.4.222-1.08.317-2.03.284-2.6-.091-5.81-.871-9.63-2.342-4.14-1.403-6.93-2.995-8.37-4.777-.61-.73-1.16-3.111-1.65-7.143-.68-5.298-1.52-9.696-2.5-13.194-3.01.289-7.43 1.238-13.26 2.847-5.82 1.53-9.62 2.854-11.4 3.974-1.3 3.34-3.02 7.452-5.17 12.337a29.492 29.492 0 0 1-.93 3.038c-.28 1.014-.98 1.816-2.1 2.407-.25.149-.6.216-1.08.199-1.89-.066-5.05-1.159-9.48-3.281-4.36-2.119-6.6-3.496-6.73-4.13-.28-1.112.56-3.799 2.53-8.06 2.74-6.203 4.34-10.005 4.78-11.407-1.6-1.708-2.37-3.388-2.31-5.04.01-.393.07-.824.16-1.293.19-.938 2.66-2.545 7.4-4.821l17.09-51.483c.27-.935.37-2.664.3-5.185-.08-2.129.2-3.457.85-3.986.41-.379 1.36-.543 2.86-.491 3.71.129 8.97 1.256 15.77 3.381 6.8 2.125 10.85 3.958 12.13 5.498.17 8.744 1.49 21.898 3.96 39.46 3.19 21.681 6.7 36.681 10.52 45.001Zm-29.65-36.926c-.85-4.989-1.37-8.274-1.55-9.855a152.397 152.397 0 0 1-1.2-16.456c-1.72 3.798-3.76 9.081-6.13 15.848-2.54 7.075-3.92 11.515-4.14 13.318 1.52-.577 5.86-1.529 13.02-2.855ZM829.034 461.616c.06-15.11 4.265-29.001 12.393-41.734 8.799-13.817 19.671-25.763 32.929-35.465 20.446-14.976 42.354-27.218 66.826-34.394 16.375-4.799 32.72-9.791 49.334-13.624 30.084-6.953 54.884-22.42 76.044-44.32 4.37-4.531 8.05-9.419 9.59-15.704.82-3.372 2.83-5.883 6.71-6.002 3.94-.119 6.86 2.02 7.5 5.557.79 4.264 1.09 8.854.34 13.104-1.56 8.988-6.59 16.402-12.33 23.385-19.63 23.876-44.07 40.471-73.94 49.014a6027.378 6027.378 0 0 0-53.047 15.437c-21.55 6.389-41.056 16.893-58.952 30.264-17.479 13.06-30.573 29.373-35.658 51.095-.552 2.362-.925 4.769-1.178 7.191-1.745 16.788 4.31 29.372 19.7 37.381 12.617 6.566 25.457 11.365 40.028 8.75.76-.133 1.655.402 2.475.624-.701.981-1.178 2.318-2.132 2.912-12.527 7.815-25.979 8.543-39.879 4.681-4.026-1.115-7.993-2.586-11.811-4.279-23.548-10.534-34.927-28.155-34.942-53.873Zm794.616-284.983c.49-3.952.97-7.8 1.48-11.634.25-1.872.39-3.788.91-5.586.91-3.135 2.94-5.319 6.43-5.111 3.44.208 5.72 2.466 5.72 5.765 0 7.116.26 14.382-1.01 21.335-2.72 14.842-6.28 29.536-9.62 44.26-.49 2.213-1.45 4.353-2.49 6.388-.46.907-1.81 2.11-2.52 1.976-.87-.163-2.03-1.53-2.13-2.481-.42-3.744-.83-7.532-.59-11.276.57-9.019 1.49-18.022 2.24-27.026.08-.921.02-1.842.02-3.254-1.97.402-3.75.862-5.55 1.13-17.67 2.525-34.96.936-51.48-5.81-24.37-9.954-34.18-29.566-27.37-54.897 1.94-7.221 4.5-14.679 8.59-20.86 23.7-35.806 56.06-56.28 100.47-52.699 19.73 1.59 36.96 9.137 48.65 26.312 14.91 21.9 12.9 48.762-6.07 67.304-6.7 6.537-14.88 11.618-22.56 17.116-2 1.426-3.03 2.763-3.69 5.229-4.11 15.63-8.51 31.186-12.96 46.727-.58 2.02-1.83 3.922-3.1 5.645-2.18 2.957-5.35 2.675-6.43-.832-1.09-3.551-1.98-7.458-1.67-11.083 1.58-18.26 3.22-36.534 5.6-54.705 1.46-11.232 9.12-13.594 17.95-5.913 8.19-6.3 16.6-12.436 21.8-21.796 11.37-20.473 2.38-45.686-19.5-54.54-14.08-5.706-28.71-6.434-43.06-2.08-28 8.468-49.38 25.42-61.99 52.119-2.6 5.497-3.95 11.781-4.76 17.858-1.12 8.439 2.3 15.407 9.72 19.909 3.45 2.095 7.09 4.086 10.91 5.304 15.46 4.903 31.45 6.626 48.06 7.206ZM1411.06 276.94c6.41-7.488 12.33-14.605 18.5-21.499 1.18-1.307 3.58-2.733 4.94-2.362 1.62.446 3.83 2.793 3.8 4.279-.04 2.778-.94 5.913-2.5 8.216-3.49 5.111-7.7 9.747-11.47 14.679-2.95 3.863-5.68 7.889-8.5 11.856-4.45 6.285-10.95 6.211-15.83.357-8.7-10.46-17.74-20.652-26.76-30.859-.71-.787-2.41-1.248-3.48-1.055-29.98 5.453-60.01 10.623-89.85 16.7-16.3 3.313-32.26 8.261-48.4 12.346-4.46 1.13-9 2.14-13.57 2.526-3.26.282-6.92.178-9.87-1.025-7.52-3.075-9.28-12.718-3.55-18.527 1.73-1.753 4.1-3.269 6.46-3.967 19.21-5.705 38.21-12.525 57.79-16.417 29.05-5.765 58.53-9.405 87.84-13.951 4.68-.728 9.36-1.456 14.03-2.273 8.19-1.427 13 .965 17.52 7.785 7.33 10.979 14.98 21.736 22.9 33.191Zm-378.15-68.002c-1.8 5.769-5.45 10.267-10.93 13.495-3.07 1.806-8.48 3.896-16.26 6.272-7.322 2.24-12.501 4.428-15.538 6.564-2.275 1.644-3.85 2.167-4.725 1.57-2.135-1.43-4.331-5.736-6.589-12.918-.093-.359-.055-.745.115-1.158.508-1.238 1.606-2.357 3.296-3.355 2.106-1.231 7.607-3.328 16.505-6.291 8.966-2.936 15.276-5.429 18.916-7.48 5.81-3.253 8.26-6.675 7.33-10.265-.52-2.057-2.12-3.63-4.79-4.718-4.73-1.926-11.76-2.257-21.083-.991-.166.013-.386-.037-.66-.148-1.029-.419-2.107-2.182-3.233-5.291-.885-2.527-1.495-4.943-1.83-7.248-.182-1.118.412-2.08 1.784-2.887 1.44-.779 4.741-1.122 9.902-1.028 6.01.195 11.24 1.199 15.69 3.013 3.85 1.563 6.72 3.618 8.64 6.164 5.54 7.391 6.69 16.29 3.46 26.7Zm-45.879 46.607c.024.332-.02.635-.133.91-.226.55-.982 1.126-2.269 1.727-1.258.531-2.117 1.065-2.577 1.6a330.936 330.936 0 0 0-3.175 3.646c-1.629 1.826-2.97 2.365-4.024 1.615-2.626-1.792-5.284-6.045-7.974-12.759-.201-.484-.163-.87.115-1.158l.75-.658a91.002 91.002 0 0 1 3.067-3.088c1.294-1.401 2.175-2.768 2.643-4.104.298-.922 1.006-1.477 2.123-1.665 1.214-.228 2.37-.119 3.467.327 1.578.642 3.293 2.705 5.146 6.189 1.881 3.415 2.828 5.888 2.841 7.418Zm556.759-14.54c1.42 8.715-.4 16.966-5.45 24.752-2.82 4.351-8.54 10.608-17.14 18.771-8.11 7.689-13.44 13.918-16.01 18.686-1.9 3.628-3.61 5.336-5.15 5.125-3.73-.482-9.42-4.682-17.07-12.6-.36-.409-.56-.938-.61-1.588-.15-1.949.55-4.126 2.11-6.53 1.94-2.979 7.76-9.298 17.45-18.958 9.79-9.668 16.4-17.027 19.82-22.077 5.47-8.035 6.42-14.097 2.85-18.185-2.02-2.352-5.14-3.37-9.35-3.053-7.45.561-16.85 4.699-28.21 12.416-.2.124-.52.203-.96.235-1.61.122-4.18-1.482-7.69-4.811-2.81-2.729-5.19-5.491-7.14-8.285-.97-1.342-.82-2.987.44-4.934 1.37-1.954 5.46-4.55 12.27-7.785 7.98-3.65 15.47-5.739 22.49-6.268 6.04-.455 11.15.359 15.33 2.44 12.07 6.061 19.41 16.944 22.02 32.649Zm-29.43 90.761c.25.417.39.842.42 1.275.07.866-.55 2.11-1.83 3.732-1.3 1.514-2.07 2.77-2.32 3.769-.59 2.223-1.18 4.5-1.76 6.831-.94 3.446-2.34 5.022-4.21 4.727-4.6-.633-10.86-4.464-18.78-11.492-.58-.501-.78-1.03-.61-1.588.18-.449.37-.898.55-1.348.61-2.006 1.27-4.016 1.99-6.03.77-2.673 1.03-5.033.76-7.083-.21-1.4.35-2.585 1.69-3.557 1.43-1.089 3.01-1.698 4.74-1.828 2.48-.187 6.08 1.394 10.78 4.743 4.7 3.24 7.56 5.856 8.58 7.849ZM129.428 165.195c8.088-6.217 17.493-8.886 28.213-8.009 5.987.484 15.513 2.869 28.58 7.154 12.304 4.03 21.594 6.046 27.867 6.049 4.742-.059 7.429.751 8.062 2.429 1.569 4.054.437 12.143-3.397 24.266-.219.586-.646 1.083-1.28 1.488-1.903 1.218-4.508 1.694-7.815 1.43-4.107-.348-13.754-2.804-28.942-7.369-15.256-4.67-26.398-7.36-33.427-8.07-11.203-1.164-17.901 1.187-20.093 7.053-1.277 3.347-.592 7.074 2.056 11.181 4.685 7.268 14.093 14.564 28.223 21.889.241.143.498.425.769.846 1.019 1.58.802 5.066-.65 10.458-1.225 4.355-2.722 8.288-4.49 11.799-.831 1.722-2.587 2.474-5.267 2.254-2.748-.324-7.65-3.064-14.707-8.22-8.121-6.11-14.388-12.589-18.801-19.435-3.803-5.899-5.797-11.541-5.984-16.926-.498-15.599 6.529-29.022 21.083-40.267Zm108.669-19.763a3.33 3.33 0 0 1 1.065-1.127c.845-.542 2.45-.601 4.813-.179 2.257.49 3.963.589 5.118.296a555.2 555.2 0 0 0 7.928-1.948c4.025-.939 6.403-.377 7.134 1.684 1.901 5.032 1.459 13.497-1.325 25.395-.189.865-.616 1.361-1.28 1.489l-1.676.179c-2.379.481-4.791.908-7.237 1.283-3.149.676-5.694 1.709-7.635 3.099-1.306.985-2.824 1.063-4.552.235-1.902-.866-3.397-2.141-4.483-3.826-1.562-2.423-1.937-6.943-1.126-13.562.705-6.551 1.79-10.89 3.256-13.018Zm1613.653-66.77c-2.8 8.914-4.58 17.829-8.43 25.718-3.17 6.492-2.01 10.029 3 14.471 16.5 14.605 32.51 29.744 49.01 44.349 3.16 2.808 4.92 5.334 4.34 9.494-.26 1.857-.05 3.759-.05 6.448-1.52-.892-2.62-1.471-3.65-2.169-21.49-14.293-41.09-30.814-59.1-49.252-3.11-3.18-6.37-6.226-9.61-9.271-3.73-3.492-4.46-8.008-2.82-12.302 9.59-25.183 10.71-51.956 15.17-78.09 1.4-8.216 5.19-12.347 13.6-12.807 14.86-.802 29.49.832 43.79 4.992 1.06.312 2.46 1.798 2.52 2.808.28 4.413.12 8.84.12 13.698-5.45-.46-10.53-.98-15.62-1.292-7.16-.446-14.34-.698-21.5-1.114-2.36-.134-3.25.713-3.61 3.12a373.053 373.053 0 0 1-3.88 21.498c-.66 3.06-.13 4.74 3.07 5.631 12.62 3.521 25.21 7.191 37.81 10.801 1.15.327 2.32.565 3.59.862v10.326c-16.36-.52-32.2-3.447-47.75-7.92ZM599.464 218.703c2.222 2.585 4.787 5.884 7.681 8.87 2.937 3.016 6.487 5.141 10.916 3.64 4.325-1.471 5.443-5.215 6.07-9.271.835-5.467 2.118-10.875 2.61-16.358.223-2.585-.239-5.809-1.656-7.859-2.46-3.522-7.874-2.615-10.156 1.456-1.297 2.317-1.968 4.992-3.057 7.889-.507-1.218-.939-2.229-1.357-3.224-3.37-7.964-11.081-9.717-17.807-4.13-2.251 1.872-4.638 3.64-7.173 5.081-.984.549-2.983.564-3.728-.089-.671-.58-.716-2.615-.239-3.64 1.447-3.165 2.774-6.582 5.026-9.138 10.916-12.376 23.354-22.449 40.46-25.079 5.95-.921 8.456-7.324 4.325-11.93-2.237-2.511-5.876-4.487-9.202-5.171-9.693-1.99-18.955.134-27.127 5.587-13.706 9.152-23.817 21.469-30.543 36.474-1.148 2.556-1.804 5.379-2.267 8.157-2.341 13.951 8.173 24.99 22.266 23.014 4.951-.713 9.738-2.763 14.958-4.279ZM182.271 68.354c3.85 7.436 6.015 16.558 6.497 27.366.419 8.68-.194 17.373-1.842 26.079-1.559 7.538-3.135 12.278-4.731 14.221-.815.937-1.873 1.74-3.174 2.408-3.013 1.549-6.931 2.353-11.755 2.414-4.236.19-7.687-.196-10.352-1.158L118.765 66.01c-.712-1.88-.233-3.465 1.439-4.756.17-.174 2.006-.815 5.507-1.923.652-.248 2.301-2.003 4.947-5.263 2.715-3.295 5.306-5.576 7.771-6.843 3.013-1.549 6.295-2.242 9.846-2.08 2.07.145 5.386.773 9.949 1.883 6.636 1.599 11.769 4.23 15.4 7.891 2.409 2.476 5.291 6.955 8.647 13.435Zm-27.277-10.987c-.448-.028-1.049.15-1.802.538-3.629 1.865-7.165 5.669-10.607 11.41l23.842 46.047c3.279-5.053 3.877-13.609 1.795-25.667-1.82-10.38-4.619-19.218-8.399-26.518-1.978-3.82-3.587-5.757-4.829-5.81Zm751.431 208.887c16.375.223 31.11 11.975 34.42 27.486 1.522 7.147.06 13.937-3.952 19.686-3.817 5.468-8.083 11.128-13.422 14.902-9.097 6.404-19.089 11.574-28.916 16.893-3.401 1.827-7.248 1.248-10.022-1.872-2.774-3.105-2.491-6.641-.835-10.207.402-.862.984-1.664 1.178-2.57 1.267-6.166 3.012-12.302 3.475-18.527.492-6.523-2.327-11.99-8.173-15.705-2.356-1.5-4.608-3.387-6.413-5.512-3.489-4.1-2.445-8.483 1.864-11.752 7.502-5.675 15.123-10.935 24.772-12.198 1.983-.252 4.011-.416 6.024-.624Zm-2.669 57.231c7.084-4.294 13.228-8.558 18.03-14.486 7.397-9.093 5.608-18.067-4.712-23.787-4.892-2.719-10.186-3.476-15.689-2.882-2.386.253-4.758.802-7.815 1.322 12.14 11.455 11.976 25.079 10.186 39.833Zm-186.713-62.853c12.02-1.114 23.175-2.199 34.36-3.164 4.31-.372 8.65-.758 12.96-.684 4.593.089 7.218 2.348 7.636 5.795.417 3.521-1.447 6.433-5.832 7.621-5.07 1.382-10.29 2.229-15.495 3.106-12.542 2.109-25.099 4.085-37.641 6.136-.537.089-1.059.252-1.581.341-5.204.862-10.424 1.412-14.212-3.313-3.714-4.62-1.924-9.375.06-14.114 3.31-7.964 6.517-15.972 9.708-23.98.641-1.604.94-3.328 1.596-5.75-2.819-.416-5.279-1.084-7.74-1.099-6.771-.06-13.527.267-20.297.223-2.819-.015-5.727-.164-8.411-.921-3.863-1.085-6.1-3.967-6.339-8.038-.253-4.249 1.835-7.28 5.638-8.989 1.566-.713 3.415-1.278 5.085-1.159 11.051.699 22.102 1.486 33.123 2.541 2.61.252 5.234 1.396 7.665 2.555 6.428 3.061 9.843 8.543 8.352 15.482-1.656 7.725-4.504 15.199-6.875 22.776-.448 1.367-1.029 2.704-1.76 4.635Zm-448.338-23.825c-.298 16.18-4.34 31.735-8.381 47.261-4.042 15.526-8.426 30.963-12.975 46.34-1.044 3.506-2.908 7.027-5.264 9.821-2.953 3.491-7.189 2.585-8.471-1.813-1.059-3.655-1.596-7.755-1.119-11.5 2.7-20.978 5.876-41.897 8.665-62.861 1.491-11.202 2.684-22.464 3.639-33.726.641-7.547 4.757-12.688 11.274-12.985 6.562-.297 11.901 4.799 12.602 12.213.224 2.377.03 4.813.03 7.25Zm221.34-104.742c13.663 11.251 20.523 25.958 22.51 43.128.815 7.088-.202 14.065-3.311 20.557-3.442 7.211-9.336 10.908-17.36 11.069-3.111.064-3.71-.926-3.121-3.913 4.312-21.393.856-41.171-12.37-58.925-1.395-1.88-2.896-3.701-4.121-5.686-2.112-3.415-1.976-6.887.158-9.334 2.261-2.597 5.838-3.372 9.532-1.618 2.825 1.314 5.408 3.122 8.083 4.722ZM92.689 285.934c-13.124 0-26.262.015-39.386-.015-1.894 0-3.788-.163-5.667-.445-4.996-.743-6.86-5.082-3.281-8.662 2.356-2.348 5.712-4.339 8.933-5.067 8.694-1.931 17.508-3.788 26.367-4.442 22.4-1.649 44.844-2.704 67.274-3.818 4.161-.208 8.396.237 12.557.698 4.593.52 7.233 2.986 7.635 6.552.418 3.655-1.446 6.998-5.98 7.964-10.022 2.124-20.133 4.16-30.319 5.081-12.661 1.159-25.412 1.173-38.133 1.679v.475Zm1475.001.529c2.26-15.719 4.47-31.438 6.87-47.142.42-2.749 1.42-5.512 2.64-8.023 2.18-4.428 6.67-6.567 11.05-5.75 4.72.892 8.28 4.487 8.22 9.657-.06 5.75-1.06 11.5-1.66 17.25-1.84 17.68-3.68 35.375-5.57 53.055-.27 2.526-.61 5.096-1.33 7.533-1 3.343-3.36 5.586-6.92 6.047-3.58.46-6.83-1.025-8.13-4.16-1.88-4.532-3.31-9.375-4.01-14.219-.67-4.62-.15-9.404-.15-14.129-.33-.03-.67-.074-1.01-.119ZM38.709 243.455c-8.755.089-13.825-8.201-10.067-15.511 1.223-2.377 3.117-4.397 4.593-6.641 10.693-16.373 21.356-32.79 32.064-49.163 3.907-5.987 7.874-11.945 11.975-17.799 1.298-1.842 2.953-3.536 4.758-4.918 2.58-1.976 5.95-2.51 8.187-.163 1.715 1.798 3.013 4.948 2.804 7.354-.269 3.061-1.939 6.151-3.55 8.915-6.546 11.172-13.406 22.167-19.939 33.354-7.203 12.347-14.212 24.812-21.191 37.277-2.342 4.16-5.295 7.147-9.635 7.295Zm1880.231 33.678c-18.62-6.403-36.26-13.267-49.46-27.694-3.36-3.67-6.01-8.32-7.8-12.985-1.88-4.888-.81-9.969 3.7-13.49 4.38-3.418 9.14-2.913 13.72-.431 3.19 1.738 6.23 3.788 9.18 5.913 9.68 6.908 19.3 13.862 28.87 20.904.91.669 1.71 2.125 1.72 3.239.13 7.934.07 15.868.07 24.544ZM232.191 94.784c-3.133 5.98.258 11.648 7.091 10.893 8.034-.884 15.971-2.631 23.921-4.173 4.759-.917 9.454-2.2 14.206-3.17 7.65-1.542 10.538-9.41 5.783-15.981-2.287-3.166-4.883-6.154-6.716-9.557-1.449-2.677-1.909-5.855-2.891-8.796-2.476-7.471-10.658-9.46-15.532-3.373-8.656 10.84-16.874 22.035-25.257 33.096-.235.331-.41.71-.605 1.06ZM1918.94 317.931c-13.87-.104-27.15-1.233-39.83-5.838-4.2-1.531-8.07-4.339-11.6-7.162-2.1-1.679-3.72-4.353-4.73-6.893-3.46-8.737 2.89-16.507 12.14-14.709 4.74.921 9.32 2.704 13.9 4.338 8.9 3.18 17.7 6.641 26.62 9.761 2.52.877 3.74 1.858 3.58 4.77-.28 5.081-.08 10.177-.08 15.733Zm-700-83.453c-3.61-.089-6.02-1.456-6.76-4.902-.71-3.343 1.05-6.3 4.82-7.325 7.56-2.065 15.21-3.789 22.82-5.705 18.36-4.621 36.7-9.271 55.06-13.877 2.36-.594 4.77-.906 7.14-1.441 4.46-1.025 8.37.936 9.4 4.784 1.09 4.056-1.4 7.77-6.13 8.855-13.44 3.09-26.89 6.106-40.33 9.196-14.22 3.269-28.45 6.567-42.69 9.836-1.17.253-2.37.401-3.33.579ZM345.483 204.16c-2.873-.07-4.796-1.145-5.378-3.854-.57-2.627.831-4.95 3.835-5.756 6.02-1.623 12.11-2.977 18.166-4.483 14.615-3.632 29.219-7.286 43.834-10.906 1.876-.467 3.8-.712 5.688-1.133 3.55-.805 6.66.736 7.479 3.76.867 3.188-1.116 6.107-4.879 6.959-10.698 2.429-21.407 4.799-32.105 7.228-11.326 2.568-22.653 5.16-33.992 7.729-.926.199-1.888.315-2.648.456Zm6.611 20.698c-2.873-.07-4.796-1.144-5.378-3.853-.57-2.627.831-4.951 3.835-5.757 6.019-1.623 12.11-2.977 18.165-4.483 14.616-3.632 29.22-7.286 43.835-10.906 1.876-.467 3.799-.712 5.687-1.132 3.55-.806 6.661.735 7.48 3.759.867 3.188-1.116 6.107-4.88 6.959-10.697 2.429-21.406 4.799-32.104 7.228-11.327 2.569-22.653 5.161-33.992 7.729-.926.199-1.888.316-2.648.456Zm1455.336 36.875c-1.45 4.814-2.18 10.044-4.58 14.323-1.73 3.075-5.55 5.185-8.8 7.087-1.07.624-4.06-.179-4.89-1.278-2.91-3.833-6.12-7.785-7.64-12.228-2.59-7.606-4.29-15.555-5.78-23.474-1.29-6.82 1.89-12.51 7.27-14.709 5.63-2.303 11.89-.371 16.07 5.215 5.45 7.325 7.03 15.868 8.35 25.064Zm-336.07-107.254c1.45 4.814 2.18 10.044 4.58 14.322 1.73 3.076 5.55 5.186 8.8 7.087 1.07.624 4.05-.178 4.89-1.277 2.91-3.834 6.11-7.786 7.64-12.228 2.59-7.607 4.29-15.555 5.78-23.474 1.28-6.82-1.89-12.51-7.28-14.709-5.62-2.303-11.88-.372-16.06 5.215-5.46 7.324-7.04 15.867-8.35 25.064ZM220.51 245.636c-.328 10.608-8.038 17.858-18.493 17.739-9.291-.104-20.028-9.39-19.342-20.161.686-10.787 8.471-18.2 19.477-17.874 10.26.283 18.686 9.613 18.358 20.296Zm556.733-33.544c1.879-10.118 3.922-21.246 6.01-32.36.969-5.155 2.013-10.311 3.042-15.451.164-.788.358-1.575.612-2.348 1.461-4.353 4.787-6.492 8.56-5.527 3.49.907 5.682 4.413 4.966 8.603-1.805 10.489-3.758 20.949-5.712 31.393-1.193 6.359-2.296 12.733-3.803 19.003-1.029 4.294-4.325 6.388-8.023 5.824-3.579-.535-5.831-3.759-5.652-9.137Zm-475.254-89.398c7.498-7.078 15.724-14.876 23.979-22.635 3.829-3.6 7.72-7.155 11.589-10.707.598-.54 1.22-1.064 1.881-1.54 3.754-2.662 7.706-2.44 10.186.552 2.285 2.78 1.986 6.9-1.068 9.867-7.657 7.421-15.416 14.731-23.167 22.029-4.722 4.441-9.38 8.946-14.302 13.131-3.369 2.868-7.271 2.629-9.927.004-2.578-2.532-2.493-6.459.829-10.701Zm1129.441 86.917c-.01 7.963-6.92 12.242-13.17 8.84-2.26-1.234-4.19-3.388-5.8-5.468-6.95-8.944-11.75-19.002-15.11-29.789-1.08-3.506-.92-6.7 2.38-9.033 2.92-2.065 6.59-1.634 9.67 1.07.41.356.84.713 1.14 1.159 6.58 9.701 13.18 19.388 19.64 29.179.91 1.397 1.03 3.299 1.25 4.042Z"/>
    <path d="M1609.49 125.822c-8.45-.01-12.99-5.017-9.38-9.549 1.3-1.644 3.59-3.04 5.8-4.208 9.49-5.041 20.17-8.524 31.62-10.959 3.72-.79 7.11-.671 9.59 1.719 2.19 2.12 1.73 4.78-1.14 7.019-.37.292-.75.606-1.23.822-10.29 4.771-20.58 9.563-30.97 14.247-1.48.66-3.5.747-4.29.909ZM596.428 204.317c7.784.03 11.871 2.244 12.586 5.914.716 3.714-1.729 6.448-7.978 8.661-3.192 1.13-6.502 1.917-9.664 3.091-8.217 3.045-16.479 6.002-24.547 9.404-5.652 2.392-8.889 2.6-11.066-.386-2.207-3.016-1.297-7.191 2.699-11.173 7.979-7.978 18.284-11.321 28.872-13.951 3.505-.861 7.174-1.233 9.098-1.56Zm628.662-22.664c-5.84 7.283-11.01 11.56-17.93 13.202-10.8 2.55-20.16-4.345-19.68-15.381.48-11.207 5.05-20.8 15.33-26.696 6.36-3.664 13.09-4.073 19.29.026 5.93 3.934 7.88 10.202 6.74 16.951-.8 4.787-2.91 9.347-3.75 11.898Zm-11.68-5.407c.58-1.568 1.96-4.247 2.48-7.097.89-4.986-1.89-7.283-6.24-4.915-3.38 1.845-6.53 4.513-9.05 7.43-2.61 3.036-2.28 9.597.1 10.955 4.19 2.38 7.1-.458 9.9-3.082.72-.653 1.3-1.477 2.81-3.291Zm127.61 42.75c-2.84 0-5.69.134-8.53-.029-5.9-.312-9.26-5.111-6.83-10.46 2.29-5.007 5.13-9.821 8.24-14.382 2.81-4.13 8.33-4.606 11.69-1.144 3.55 3.67 6.8 7.667 9.94 11.708 2.35 3.001 2.72 6.374.75 9.85-2.04 3.61-5.08 4.992-9.17 4.472-2.01-.252-4.06-.208-6.09-.312.02.089 0 .193 0 .297Zm86.73-39.382c.87-5.215 3.34-8.691 7.25-9.241 4.03-.58 7.22 1.902 8.59 6.805 1.85 6.596 3.7 13.193 5.41 19.819 1.63 6.27.33 10.549-3.41 12.005-3.86 1.515-8.56-.862-10.86-6.79-2.82-7.339-4.7-15.05-6.98-22.598Zm213.58-56.464c5.54.627 9.23 2.422 9.82 5.256.61 2.92-2.02 5.234-7.23 6.23-7 1.342-14 2.683-21.03 3.928-6.66 1.179-11.2.239-12.75-2.476-1.61-2.801.92-6.208 7.21-7.874 7.79-2.045 15.97-3.408 23.98-5.064Zm-716.27 94.406c-8.053-.341-13.884-5.883-13.72-13.059.164-7.043 6.039-12.718 12.855-12.421 7.427.327 13.422 7.072 13.153 14.783-.223 6.433-5.443 10.98-12.288 10.697Zm233.95 73.558c-.02-5.987 4.48-10.801 10.17-10.861 5.83-.059 12 5.498 12.06 10.861.08 6.181-5.47 11.826-11.53 11.722-6.31-.118-10.67-4.902-10.7-11.722Zm620.22-190.969c.13 9.576-6.62 17.353-15.17 17.457-9.6.131-19.45-9.838-19.76-19.989-.29-9.263 6.67-16.57 15.9-16.7 10.3-.13 18.87 8.507 19.03 19.232ZM230.43 23.126c.086 5.893-4.291 10.679-9.836 10.743-6.231.08-12.617-6.054-12.823-12.3-.188-5.701 4.326-10.198 10.317-10.278 6.677-.08 12.239 5.235 12.342 11.835Zm521.614 215.8c-.015 3.135-3.863 6.151-7.845 6.151-4.593 0-7.874-2.986-7.74-7.027.135-3.67 3.415-6.597 7.397-6.582 4.191 0 8.218 3.67 8.188 7.458ZM473.2 31.795c-.089 3.52-2.982 5.957-6.905 5.794-3.952-.163-6.666-2.734-6.144-6.403.388-2.734.119-6.449 4.31-6.701 4.474-.268 8.844 3.58 8.739 7.31ZM1700.66 240.59c-3.62.089-6.87-3.447-6.93-7.548-.06-3.491 2.35-6.047 5.69-6.047 3.73 0 6.43 2.986 6.63 7.28.13 3.596-2.11 6.225-5.39 6.315Zm96.46-193.552c-6.39.155-12.12-5.963-12.22-13.056-.11-6.04 4.15-10.462 10.04-10.462 6.57 0 11.33 5.167 11.67 12.595.23 6.22-3.71 10.77-9.49 10.923Zm-624.85 159.261c-3.67-2.501-4.31-8.397-1.37-12.58 2.5-3.568 6.77-4.42 10.09-2.031 3.71 2.666 4.2 7.612 1.25 12.086-2.5 3.726-6.64 4.782-9.97 2.525Zm-532.756 18.655c-3.728.045-6.994-2.718-6.994-5.928 0-3.268 2.729-6.047 5.875-5.972 3.192.074 6.264 3.105 6.339 6.255.074 2.986-2.372 5.616-5.22 5.645Z"/>
  </g>
  <defs>
    <clipPath id="a">
      <path fill="#fff" d="M0 0h1919v318H0z"/>
    </clipPath>
  </defs>
</svg>
