<?xml version="1.0" encoding="UTF-8"?>
<svg version="1.1" xmlns="http://www.w3.org/2000/svg" width="512" height="512">
<path d="M0 0 C1.28633668 -0.00445784 2.57267335 -0.00891569 3.89798993 -0.01350862 C5.32870051 -0.01341932 6.75941109 -0.01322947 8.19012165 -0.01294994 C9.70763519 -0.01624943 11.22514785 -0.01997518 12.74265939 -0.02409142 C16.9193852 -0.03411062 21.09609663 -0.03782812 25.27283275 -0.04048073 C29.77552169 -0.04438425 34.27819925 -0.05396284 38.78088093 -0.0626936 C49.66111171 -0.08246095 60.54134342 -0.09252645 71.42158768 -0.10142139 C76.5483139 -0.10580552 81.67503908 -0.11117216 86.80176449 -0.11641026 C103.85137912 -0.13342596 120.90099311 -0.14791788 137.95061493 -0.155159 C142.37569079 -0.15706884 146.80076664 -0.15898917 151.22584248 -0.16094494 C152.32564866 -0.16142868 153.42545484 -0.16191242 154.55858848 -0.16241082 C172.3556957 -0.17070257 190.15273551 -0.19602351 207.94981333 -0.22852562 C226.23249403 -0.26164142 244.51514054 -0.27961201 262.79785138 -0.28280324 C273.05835224 -0.2849646 283.31875493 -0.29365792 293.57922649 -0.31926441 C302.32225698 -0.34103357 311.06516547 -0.34899152 319.80821999 -0.33929763 C324.26401054 -0.33477032 328.71954972 -0.33654686 333.17530537 -0.35605907 C337.26622915 -0.37381762 341.35672057 -0.37259163 345.44764975 -0.35716178 C346.91619973 -0.35480472 348.38478067 -0.35900869 349.85328367 -0.37099043 C364.98720614 -0.48667524 379.08458381 2.52147026 392.77686787 9.13422108 C393.66374287 9.55187733 394.55061787 9.96953358 395.46436787 10.39984608 C417.77616944 21.68546664 434.5555905 41.64843788 442.77686787 65.13422108 C451.00844161 92.42395886 449.43032686 120.13351498 435.99952412 145.48968983 C432.07863218 152.20090976 427.52259833 158.12132369 422.36988544 163.91009998 C420.22311035 166.3295725 418.81295702 168.02595361 417.77686787 171.13422108 C418.27948262 173.1133396 418.27948262 173.1133396 419.21827412 175.21234608 C419.7185915 176.44066151 419.7185915 176.44066151 420.2290163 177.69379139 C420.59543232 178.58163319 420.96184834 179.46947498 421.33936787 180.38422108 C432.10713758 207.66697502 437.0010694 236.91852632 437.02686787 266.19672108 C437.02754261 266.89231129 437.02821735 267.5879015 437.02891254 268.3045702 C436.99626555 289.71672683 434.25781906 310.42970397 428.77686787 331.13422108 C428.55659931 331.97646229 428.33633076 332.8187035 428.1093874 333.68646717 C417.5712904 373.2138971 396.06251697 408.82249039 367.77686787 438.13422108 C367.2103249 438.72267811 366.64378193 439.31113514 366.06007099 439.9174242 C350.21283876 456.28997905 332.37406329 469.82970809 312.57569599 481.10931873 C310.83886388 482.09889816 309.11232769 483.1064813 307.38624287 484.11468983 C276.57835171 501.41822511 239.43144002 512.0576667 204.00343037 512.37250233 C203.09003391 512.38225086 202.17663746 512.3919994 201.23556232 512.40204334 C181.0774111 512.57287785 161.57296688 512.39735429 141.77686787 508.13422108 C140.88403095 507.94698475 139.99119404 507.75974842 139.07130146 507.56683826 C133.23800712 506.31103703 127.50146605 504.81459303 121.77686787 503.13422108 C120.95090107 502.89364979 120.12493427 502.6530785 119.27393818 502.40521717 C89.98764084 493.69105866 62.52717618 479.35666262 38.77686787 460.13422108 C38.20629658 459.67789295 37.63572529 459.22156483 37.04786396 458.75140858 C21.86577733 446.51836035 7.44987531 432.58034167 -4.02440166 416.78168201 C-5.23665463 415.11563659 -6.47573576 413.47235392 -7.71922588 411.82953358 C-45.98468279 360.59033558 -60.91332838 294.18873149 -52.19969463 231.21625233 C-49.71565818 215.01858607 -46.60375062 195.89545804 -39.22313213 181.13422108 C-39.12593027 179.20779483 -39.09408562 177.27795571 -39.09183025 175.34908009 C-39.08581799 173.50085903 -39.08581799 173.50085903 -39.07968426 171.61530018 C-39.0801594 170.24213121 -39.08069552 168.86896226 -39.08128643 167.49579334 C-39.07825548 166.05523541 -39.07473421 164.61467844 -39.07075787 163.17412281 C-39.06286004 160.06607487 -39.05772047 156.95803846 -39.0544672 153.84998226 C-39.04855728 148.92784205 -39.03201441 144.00577418 -39.01312542 139.08366871 C-39.00678749 137.39792065 -39.00046187 135.71217255 -38.99414825 134.02642441 C-38.99098244 133.18198426 -38.98781663 132.33754411 -38.98455489 131.46751487 C-38.94251291 120.00722758 -38.90953739 108.54697286 -38.8972044 97.08661366 C-38.88880313 89.35923045 -38.86623155 81.63202533 -38.82784873 73.90473121 C-38.8081482 69.8181216 -38.79566319 65.73177786 -38.80068302 61.64511776 C-38.80535665 57.79295493 -38.79137756 53.94129418 -38.76367092 50.08923244 C-38.75680298 48.68288032 -38.75658472 47.27647579 -38.76387119 45.87012577 C-38.82655943 32.39952545 -35.76778944 21.19919958 -26.41063213 11.19672108 C-18.84476274 4.11897229 -10.35817145 0.01664183 0 0 Z " fill="#51ABF7" transform="translate(59.22313213348389,-0.13422107696533203)"/>
<path d="M0 0 C1.03423096 -0.00080566 2.06846191 -0.00161133 3.1340332 -0.00244141 C8.40510992 0.03598063 13.40512923 0.37832721 18.625 1.1875 C18.62910889 2.19127686 18.63321777 3.19505371 18.63745117 4.22924805 C18.65928312 7.96641844 18.71361294 11.70254201 18.77758789 15.43920898 C18.80073286 17.05401549 18.81515543 18.66897221 18.82055664 20.28393555 C18.82987274 22.61081148 18.87091368 24.93533676 18.91796875 27.26171875 C18.9140361 27.97962082 18.91010345 28.69752289 18.90605164 29.43717957 C19.00681093 32.92692265 19.60154246 35.14747087 21.36987305 38.16503906 C26.5181663 41.36375363 31.48794131 40.6765616 37.4140625 40.47265625 C39.99086478 40.44525138 42.56768987 40.41992694 45.14453125 40.39648438 C49.19395621 40.33815804 53.2416016 40.25372314 57.28955078 40.12963867 C81.1702129 39.48322945 81.1702129 39.48322945 86.77905273 43.76757812 C89.63247523 46.56278031 91.62737574 49.73279167 93.625 53.1875 C94.86391131 54.67304779 96.12787153 56.13890359 97.4375 57.5625 C97.91832031 58.12710938 98.39914063 58.69171875 98.89453125 59.2734375 C99.46558594 59.90507812 100.03664062 60.53671875 100.625 61.1875 C101.78571518 62.71123985 101.78571518 62.71123985 102.96987915 64.26576233 C106.71940716 67.96400244 110.25475164 67.88846162 115.34223938 67.91972351 C117.07234505 67.88489616 117.07234505 67.88489616 118.83740234 67.84936523 C120.06413162 67.84875092 121.2908609 67.8481366 122.55476379 67.84750366 C125.21577268 67.84252686 127.87418622 67.82684342 130.53474045 67.79311943 C134.74658799 67.74078395 138.95770565 67.73545196 143.16983032 67.73731995 C153.63117114 67.73455578 164.09199166 67.66688973 174.55303955 67.59301758 C182.68518726 67.53651497 190.81675807 67.49664596 198.94912875 67.50386959 C203.13082055 67.5057185 207.31052954 67.47454064 211.49181724 67.41775692 C214.71245183 67.38280071 217.93301973 67.39326092 221.15380859 67.39624023 C222.30316391 67.37099777 223.45251923 67.34575531 224.63670349 67.31974792 C230.3644836 67.36984065 233.84877363 67.77923899 238.26878357 71.59747314 C239.41583284 72.76704017 240.53927525 73.96079268 241.625 75.1875 C242.69947388 76.29218628 242.69947388 76.29218628 243.7956543 77.41918945 C244.34133057 78.04011475 244.88700684 78.66104004 245.44921875 79.30078125 C253.40275867 88.63566952 253.40275867 88.63566952 264.4375 92.875 C265.48035156 92.91496094 266.52320313 92.95492187 267.59765625 92.99609375 C278.87590253 93.70916997 289.93493989 102.96067542 297.66807556 110.56692505 C299.91460914 112.55791594 301.60551475 113.81247324 304.13722229 115.25192261 C309.87923527 118.88453169 313.80591558 122.84158339 315.45801926 129.59033966 C316.77255781 139.49430747 316.68306653 149.47777598 316.60435176 159.45202875 C316.58485204 162.97117486 316.60935685 166.48947559 316.63363463 170.00854957 C316.69034549 178.31426209 316.67604863 186.6177163 316.61499023 194.92333984 C316.55327466 203.46716933 316.60446611 212.00498816 316.71231169 220.54822457 C316.80168555 227.91126517 316.82452918 235.27244891 316.79388911 242.63596809 C316.77605351 247.02211345 316.78183356 251.40474719 316.85032463 255.79047012 C317.22157637 282.29836805 317.22157637 282.29836805 312.94379044 288.70560265 C309.05000066 292.51336917 304.74563839 294.69345106 299.63609028 296.45929623 C296.87002856 297.46087065 294.49996688 298.95224949 292.03125 300.53515625 C259.39614228 318.88976251 221.54612847 331.09080357 183.8515625 331.42578125 C182.93816605 331.43552979 182.02476959 331.44527832 181.08369446 331.45532227 C160.92554323 331.62615677 141.42109901 331.45063321 121.625 327.1875 C120.73216309 327.00026367 119.83932617 326.81302734 118.91943359 326.62011719 C113.08613925 325.36431595 107.34959818 323.86787195 101.625 322.1875 C100.7990332 321.94692871 99.97306641 321.70635742 99.12207031 321.45849609 C69.83577298 312.74433759 42.37530832 298.40994154 18.625 279.1875 C18.05442871 278.73117187 17.48385742 278.27484375 16.89599609 277.8046875 C1.13421211 265.10454501 -13.50255113 250.60063984 -25.375 234.1875 C-26.01357438 233.44271138 -26.01357438 233.44271138 -26.66504925 232.68287653 C-30.63013807 227.82745466 -31.08191506 224.02566385 -30.97627258 217.879776 C-30.98054471 216.96316285 -30.98481683 216.0465497 -30.98921841 215.10216039 C-30.99743101 212.04164389 -30.96999162 208.98250863 -30.94262695 205.92211914 C-30.94121611 203.72407056 -30.94200916 201.52601962 -30.94483948 199.32797241 C-30.94627361 193.36762641 -30.91688357 187.40778387 -30.88196969 181.44755483 C-30.85070613 175.21623747 -30.84777543 168.98490847 -30.84184265 162.75352478 C-30.82806952 152.29677792 -30.79684197 141.84020329 -30.75219727 131.38354492 C-30.70627029 120.61532511 -30.67089381 109.84715546 -30.6496582 99.07885742 C-30.64834459 98.41459647 -30.64703097 97.75033552 -30.64567754 97.06594545 C-30.63915214 93.73339231 -30.63284494 90.40083883 -30.62661803 87.06828511 C-30.57436 59.44122826 -30.48641756 31.81437712 -30.375 4.1875 C-20.51377323 0.14771388 -10.52602664 0.00795678 0 0 Z " fill="#D2DBFA" transform="translate(79.375,180.8125)"/>
<path d="M0 0 C12.45737044 -1.07391124 23.5365447 4.20842181 33 12 C35.43831149 14.07256476 37.79250854 16.16678851 40.07505798 18.41067505 C42.30525893 20.38497571 43.99191895 21.62943921 46.50611877 23.05831909 C52.24973227 26.69264235 56.18023612 30.65214142 57.83329391 37.40311432 C59.14774618 47.30694167 59.05806535 57.29042478 58.97935176 67.26452875 C58.95985204 70.78367486 58.98435685 74.30197559 59.00863463 77.82104957 C59.06534549 86.12676209 59.05104863 94.4302163 58.98999023 102.73583984 C58.92827466 111.27966933 58.97946611 119.81748816 59.08731169 128.36072457 C59.17668555 135.72376517 59.19952918 143.08494891 59.16888911 150.44846809 C59.15105351 154.83461345 59.15683356 159.21724719 59.22532463 163.60297012 C59.59657637 190.11086805 59.59657637 190.11086805 55.31879044 196.51810265 C51.42500066 200.32586917 47.12063839 202.50595106 42.01109028 204.27179623 C39.24502856 205.27337065 36.87496688 206.76474949 34.40625 208.34765625 C1.77114228 226.70226251 -36.07887153 238.90330357 -73.7734375 239.23828125 C-74.68683395 239.24802979 -75.60023041 239.25777832 -76.54130554 239.26782227 C-96.69945677 239.43865677 -116.20390099 239.26313321 -136 235 C-136.89283691 234.81276367 -137.78567383 234.62552734 -138.70556641 234.43261719 C-144.53886075 233.17681595 -150.27540182 231.68037195 -156 230 C-157.2389502 229.63914307 -157.2389502 229.63914307 -158.50292969 229.27099609 C-178.57236818 223.29932046 -198.69247187 214.92666202 -216 203 C-216 202.67 -216 202.34 -216 202 C-161.055 201.505 -161.055 201.505 -105 201 C-107.64 200.01 -110.28 199.02 -113 198 C-119.70653961 193.70692489 -124.7187024 187.28124588 -126.609375 179.48828125 C-128.00261376 170.61335033 -126.67052966 163.16362647 -121.38671875 155.73046875 C-117.29017337 150.83459744 -113.14091966 147.04697322 -107 145 C-107.90566711 145.00079559 -108.81133423 145.00159119 -109.7444458 145.00241089 C-118.2788532 145.00461851 -126.81258989 144.97823705 -135.34680557 144.9197216 C-139.73444045 144.89064643 -144.12154018 144.87263643 -148.50927734 144.87988281 C-152.74367876 144.88646937 -156.97702208 144.86403107 -161.21120453 144.82144547 C-162.82669051 144.81030196 -164.44228364 144.80962542 -166.0577774 144.81957626 C-168.32126782 144.83173179 -170.58151987 144.80670933 -172.84472656 144.77294922 C-174.13268127 144.768508 -175.42063599 144.76406677 -176.74761963 144.75949097 C-180 144 -180 144 -182.40252686 141.10964966 C-184.88781493 136.27177476 -185.85094553 131.25790573 -184.453125 125.90625 C-183.26636962 123.0483493 -181.71450015 120.57175023 -180 118 C-177.3555584 117.63479233 -177.3555584 117.63479233 -173.92892456 117.64837646 C-171.98585167 117.64474342 -171.98585167 117.64474342 -170.00352478 117.64103699 C-168.55947687 117.65337625 -167.11543089 117.66594189 -165.67138672 117.67871094 C-164.15699928 117.68115331 -162.64260899 117.68218263 -161.1282196 117.68190002 C-157.86129984 117.68373083 -154.59456875 117.6944351 -151.32769394 117.71157074 C-146.15851787 117.737435 -140.98956749 117.73642586 -135.82034302 117.73028564 C-121.11906097 117.71667681 -106.41797935 117.73428819 -91.71679688 117.79052734 C-83.60157799 117.82133829 -75.48672847 117.82705439 -67.37147534 117.80564141 C-62.23670687 117.79353666 -57.10328406 117.81234755 -51.96868587 117.85412645 C-48.76575362 117.87279726 -45.56340903 117.86211447 -42.36049843 117.84327507 C-40.88027739 117.84038232 -39.39997559 117.84937639 -37.91991615 117.87143898 C-28.32460039 118.0984763 -28.32460039 118.0984763 -20.20924377 113.58882141 C-19.1113017 112.41837071 -18.03704722 111.22473046 -17 110 C-15.78582397 108.88129517 -15.78582397 108.88129517 -14.54711914 107.73999023 C-12.3723875 105.65234286 -10.21467232 103.54839264 -8.0625 101.4375 C-7.29615234 100.70853516 -6.52980469 99.97957031 -5.74023438 99.22851562 C-2.67347448 96.21065004 -0.34815175 93.87526001 1.25390625 89.84765625 C0.57437973 82.22650496 -6.93111351 76.80394698 -12.0625 71.75 C-12.87783203 70.9353125 -13.69316406 70.120625 -14.53320312 69.28125 C-21.16206773 62.43852203 -21.16206773 62.43852203 -30.21824646 60.75517273 C-31.52078369 60.75123505 -32.82332092 60.74729736 -34.16532898 60.74324036 C-35.61209163 60.74884956 -37.05885371 60.75460713 -38.50561523 60.76049805 C-40.0266428 60.75938538 -41.54766992 60.7573279 -43.06869507 60.75439453 C-46.34592005 60.74966869 -49.62307342 60.75079618 -52.90029716 60.75617027 C-58.0810502 60.76376779 -63.26166464 60.75313865 -68.44239807 60.7389679 C-83.17490163 60.70119231 -97.90734278 60.68304787 -112.63989258 60.69458008 C-120.77520408 60.70079134 -128.91029241 60.68924238 -137.04554898 60.65813476 C-142.19702813 60.63944932 -147.3478767 60.6428281 -152.49934566 60.66230237 C-155.70310844 60.66917462 -158.90652775 60.65524603 -162.11022568 60.63535309 C-163.59693449 60.63029739 -165.08370061 60.63381253 -166.570364 60.64648628 C-168.59844744 60.66254787 -170.62671431 60.64503892 -172.6547699 60.6257782 C-173.79020957 60.62561046 -174.92564924 60.62544271 -176.09549618 60.62526989 C-179.92737378 59.80035871 -180.90460501 58.21954338 -183 55 C-185.07958473 51.73208114 -185.20837973 49.46424398 -184.875 45.625 C-184.77832031 44.25214844 -184.77832031 44.25214844 -184.6796875 42.8515625 C-183.79617916 39.14488959 -182.41786507 36.94604426 -180 34 C-177.09384537 33.25003147 -177.09384537 33.25003147 -173.65045166 33.24964905 C-172.34390625 33.23468887 -171.03736084 33.2197287 -169.69122314 33.20431519 C-168.2449904 33.217827 -166.79876238 33.23185182 -165.35253906 33.24633789 C-163.82798915 33.23976407 -162.30344891 33.23046459 -160.77893066 33.21864319 C-157.49608423 33.19857581 -154.21392101 33.19690448 -150.9310379 33.20918465 C-145.73621886 33.22757873 -140.54228843 33.19954592 -135.34759521 33.16416931 C-122.4424164 33.08367221 -109.53723584 33.0678999 -96.63183594 33.05804443 C-86.60734799 33.04946896 -76.58342604 33.02445468 -66.55916762 32.95266336 C-61.39937632 32.91756828 -56.24095273 32.91538125 -51.08110857 32.93842137 C-47.86390873 32.94575969 -44.6473673 32.92416257 -41.43031311 32.89479637 C-39.9436801 32.88709193 -38.45692861 32.89124649 -36.97037506 32.90843964 C-27.33993155 33.10651735 -27.33993155 33.10651735 -19.1940155 28.57855225 C-18.09947565 27.4130474 -17.02954247 26.22329936 -16 25 C-15.25113525 24.29383545 -14.50227051 23.5876709 -13.73071289 22.86010742 C-13.1505542 22.28107666 -12.57039551 21.7020459 -11.97265625 21.10546875 C-11.32619141 20.46029297 -10.67972656 19.81511719 -10.01367188 19.15039062 C-9.36978516 18.50263672 -8.72589844 17.85488281 -8.0625 17.1875 C-7.05606445 16.18686523 -7.05606445 16.18686523 -6.02929688 15.16601562 C-5.39185547 14.52728516 -4.75441406 13.88855469 -4.09765625 13.23046875 C-3.52539307 12.65707764 -2.95312988 12.08368652 -2.36352539 11.49291992 C-0.04032335 8.94925287 0.11639492 7.21648491 0.0625 3.875 C0.0315625 1.956875 0.0315625 1.956875 0 0 Z " fill="#E8EEFE" transform="translate(337,273)"/>
<path d="M0 0 C1.77802785 -0.00298657 1.77802785 -0.00298657 3.59197545 -0.00603348 C5.54720919 -0.00166422 5.54720919 -0.00166422 7.5419426 0.00279331 C8.93957754 0.00235733 10.3372124 0.00148193 11.73484683 0.00020415 C15.5795518 -0.00203556 19.424229 0.00197333 23.26893044 0.00698221 C27.41341146 0.01129402 31.55789087 0.00983976 35.7023735 0.00907993 C42.88434598 0.00855516 50.06630938 0.01169708 57.24827957 0.01731777 C67.63224848 0.02543911 78.01621298 0.02804864 88.40018472 0.02930576 C105.24681728 0.03149528 122.09344499 0.03815267 138.94007492 0.04760838 C155.30661113 0.05678507 171.67314603 0.06386465 188.0396843 0.06811619 C189.04823791 0.06837891 190.05679152 0.06864164 191.09590736 0.06891232 C196.1554409 0.07021734 201.21497445 0.07148105 206.274508 0.07272422 C248.25938784 0.08309372 290.24426235 0.10070934 332.22913742 0.12304783 C332.22913742 0.78304783 332.22913742 1.44304783 332.22913742 2.12304783 C331.34355148 2.31898533 330.45796555 2.51492283 329.54554367 2.71679783 C303.51145784 9.00182167 281.99052851 23.58951903 267.37659836 46.21289158 C263.63591756 52.43993128 260.52476395 59.23616823 258.22913742 66.12304783 C169.78913742 66.12304783 81.34913742 66.12304783 -9.77086258 66.12304783 C-9.77086258 178.65304783 -9.77086258 291.18304783 -9.77086258 407.12304783 C-46.02023878 361.81132757 -58.50735035 297.46882306 -52.95030594 240.78613377 C-50.7622328 221.55205372 -47.52136645 198.62405558 -38.77086258 181.12304783 C-38.67366072 179.19662158 -38.64181606 177.26678247 -38.6395607 175.33790684 C-38.63354843 173.48968578 -38.63354843 173.48968578 -38.6274147 171.60412693 C-38.62788984 170.23095796 -38.62842597 168.85778902 -38.62901688 167.48462009 C-38.62598593 166.04406216 -38.62246466 164.60350519 -38.61848831 163.16294956 C-38.61059048 160.05490162 -38.60545092 156.94686521 -38.60219765 153.83880901 C-38.59628772 148.9166688 -38.57974486 143.99460093 -38.56085587 139.07249546 C-38.55451794 137.38674741 -38.54819232 135.70099931 -38.5418787 134.01525116 C-38.53871289 133.17081101 -38.53554708 132.32637087 -38.53228533 131.45634162 C-38.49024336 119.99605433 -38.45726784 108.53579961 -38.44493484 97.07544041 C-38.43653357 89.3480572 -38.413962 81.62085208 -38.37557918 73.89355797 C-38.35587865 69.80694835 -38.34339363 65.72060461 -38.34841347 61.63394451 C-38.3530871 57.78178168 -38.33910801 53.93012093 -38.31140137 50.0780592 C-38.30453342 48.67170707 -38.30431517 47.26530254 -38.31160164 45.85895252 C-38.37428988 32.3883522 -35.31551989 21.18802633 -25.95836258 11.18554783 C-18.58955539 4.29214755 -10.130443 -0.00375202 0 0 Z " fill="#0E62A8" transform="translate(58.7708625793457,-0.1230478286743164)"/>
<path d="M0 0 C1.22589844 0.00684814 2.45179688 0.01369629 3.71484375 0.02075195 C17.99731244 0.27216408 30.40253123 3.2025719 43.3125 9.4375 C44.199375 9.85515625 45.08625 10.2728125 46 10.703125 C68.31180157 21.98874556 85.09122264 41.9517168 93.3125 65.4375 C101.54407374 92.72723779 99.96595899 120.4367939 86.53515625 145.79296875 C72.44610724 169.90858024 50.06395635 186.36722025 23.1171875 193.5625 C5.87229834 197.5284704 -12.8609092 196.82837205 -29.6875 191.4375 C-30.8321875 191.07527344 -31.976875 190.71304688 -33.15625 190.33984375 C-56.79172124 182.03929135 -76.57733784 163.74825253 -87.73046875 141.48046875 C-98.91924339 117.82453441 -101.30628387 90.99573524 -92.63623047 66.18505859 C-82.67010532 39.21451209 -63.6597638 19.5037375 -37.6875 7.4375 C-33.7390389 5.85042063 -29.77476386 4.60919751 -25.6875 3.4375 C-24.79272949 3.17163086 -23.89795898 2.90576172 -22.97607422 2.63183594 C-15.24006319 0.49487602 -8.00582878 -0.06903481 0 0 Z " fill="#FEB234" transform="translate(408.6875,-0.4375)"/>
<path d="M0 0 C19.28506114 22.08168632 21.22558601 69.35551884 21.25 97.0625 C21.25067474 97.75809021 21.25134949 98.45368042 21.25204468 99.17034912 C21.21939768 120.58250575 18.48095119 141.29548289 13 162 C12.77973145 162.84224121 12.55946289 163.68448242 12.33251953 164.55224609 C1.79442253 204.07967603 -19.7143509 239.68826931 -48 269 C-48.56654297 269.58845703 -49.13308594 270.17691406 -49.71679688 270.78320312 C-57.09572398 278.40673554 -64.614347 285.48237051 -73 292 C-74.32837891 293.10988281 -74.32837891 293.10988281 -75.68359375 294.2421875 C-78 296 -78 296 -80 296 C-80 206.57 -80 117.14 -80 25 C-71.42 25 -62.84 25 -54 25 C-48.96020158 24.200032 -44.76199592 23.45840088 -40 22 C-38.56333984 21.61714844 -38.56333984 21.61714844 -37.09765625 21.2265625 C-23.2184375 17.16526091 -10.63261742 9.71403276 0 0 Z " fill="#49D88B" transform="translate(475,169)"/>
<path d="M0 0 C1.22589844 0.00684814 2.45179688 0.01369629 3.71484375 0.02075195 C17.99731244 0.27216408 30.40253123 3.2025719 43.3125 9.4375 C44.199375 9.85515625 45.08625 10.2728125 46 10.703125 C68.31180157 21.98874556 85.09122264 41.9517168 93.3125 65.4375 C101.54407374 92.72723779 99.96595899 120.4367939 86.53515625 145.79296875 C72.44610724 169.90858024 50.06395635 186.36722025 23.1171875 193.5625 C5.87229834 197.5284704 -12.8609092 196.82837205 -29.6875 191.4375 C-30.8321875 191.07527344 -31.976875 190.71304688 -33.15625 190.33984375 C-56.79172124 182.03929135 -76.57733784 163.74825253 -87.73046875 141.48046875 C-98.91924339 117.82453441 -101.30628387 90.99573524 -92.63623047 66.18505859 C-82.67010532 39.21451209 -63.6597638 19.5037375 -37.6875 7.4375 C-33.7390389 5.85042063 -29.77476386 4.60919751 -25.6875 3.4375 C-24.79272949 3.17163086 -23.89795898 2.90576172 -22.97607422 2.63183594 C-15.24006319 0.49487602 -8.00582878 -0.06903481 0 0 Z M-30.6875 21.4375 C-33.51327516 25.195368 -34.27422696 27.74368432 -33.6875 32.4375 C-32.10466894 35.67853502 -30.25011781 37.9466642 -27.6875 40.4375 C-28.29335938 40.76621094 -28.89921875 41.09492187 -29.5234375 41.43359375 C-46.69839406 51.18368447 -57.07142628 65.15976635 -62.4296875 84.0546875 C-65.99305713 99.33324495 -63.00986703 115.68751901 -55.6875 129.4375 C-45.76385642 145.02056804 -32.39040339 155.27616304 -14.6875 160.4375 C3.82790999 164.30114924 21.28760475 159.92986713 37.3125 150.4375 C40.14229353 148.55493428 42.69853203 146.61580664 45.3125 144.4375 C45.374375 145.324375 45.43625 146.21125 45.5 147.125 C46.53150244 151.33035611 47.88236521 152.82761484 51.3125 155.4375 C54.60086188 157.10980968 54.60086188 157.10980968 58.3125 156.4375 C68.89069685 148.28081809 75.27980259 133.77999814 79.3125 121.4375 C79.6321875 120.5196875 79.951875 119.601875 80.28125 118.65625 C86.00453288 99.79061383 82.63117248 77.28108439 73.58789062 60.02050781 C70.0784155 53.70409417 65.9768318 47.96344904 61.3125 42.4375 C60.70019531 41.71175781 60.08789062 40.98601563 59.45703125 40.23828125 C47.0364783 26.75840609 26.25410695 16.68789455 8.04296875 15.87109375 C5.52879202 15.84394992 3.01415431 15.84585365 0.5 15.875 C-0.81137939 15.88378174 -2.12275879 15.89256348 -3.47387695 15.90161133 C-12.88238292 16.09923717 -22.35944425 16.62599846 -30.6875 21.4375 Z " fill="#FDB333" transform="translate(408.6875,-0.4375)"/>
<path d="M0 0 C29.04 0 58.08 0 88 0 C86.80130981 4.79476076 84.66616029 8.67083463 82.375 13.02734375 C78.99273445 20.33957126 78.15478044 30.26678933 80.64306641 37.99804688 C82.39551336 42.20728359 84.58777847 46.13114791 87 50 C87.42336136 50.70908508 87.84672272 51.41817017 88.28291321 52.14874268 C89.86809487 54.21277598 89.86809487 54.21277598 92.41081238 54.51898193 C93.36345474 54.52786438 94.31609711 54.53674683 95.29760742 54.54589844 C96.37850143 54.56561707 97.45939545 54.58533569 98.57304382 54.60565186 C99.73874405 54.60688049 100.90444427 54.60810913 102.10546875 54.609375 C103.89698112 54.63417938 103.89698112 54.63417938 105.72468567 54.65948486 C109.5456752 54.70813503 113.36626626 54.7293745 117.1875 54.75 C119.77541086 54.77814529 122.36330302 54.80807066 124.95117188 54.83984375 C131.3007085 54.9138987 137.65013227 54.96544134 144 55 C142 57 142 57 138.75 58.125 C133.97988334 60.16078201 131.14189383 63.29651693 129 68 C128.24468131 72.34308248 128.01342664 76.59606198 128 81 C122 79 122 79 119.046875 77.8984375 C110.93377062 75.50611185 101.83039491 76.08399862 94.1796875 79.68359375 C87.22811558 83.88194453 82.33702887 90.21335072 80 98 C78.77497303 108.06886206 79.75864732 115.82360048 85.47265625 124.14453125 C89.67048367 129.49353593 94.40881035 133.15344103 101 135 C109.39815258 135.87079548 117.30206886 135.84896557 125 132 C127.88328921 134.39883411 128.43572877 136.1422408 128.9375 139.8125 C129.76542873 144.39949225 130.85233211 147.42697158 134 151 C136.27426112 152.56508292 138.51870623 153.75935311 141 155 C141 155.33 141 155.66 141 156 C129.87341787 156.09268518 118.7469276 156.1637576 107.62003803 156.20724869 C102.45334041 156.22812241 97.28690693 156.25643634 92.12036133 156.30175781 C87.13422741 156.34522292 82.14834755 156.36913873 77.1620388 156.37950897 C75.2598184 156.38689913 73.35761188 156.4013304 71.45549965 156.42292023 C68.79074699 156.45196313 66.1270437 156.45595565 63.4621582 156.45410156 C62.67597107 156.46848267 61.88978394 156.48286377 61.07977295 156.49768066 C57.33676299 156.46950572 55.21558986 156.13833327 52.03361511 154.09661865 C48.46067476 150.41298484 48.8679997 147.24725873 48.90234375 142.3671875 C48.9037587 141.61535187 48.90517365 140.86351624 48.90663147 140.08889771 C48.91223535 137.6842249 48.92478843 135.27964473 48.9375 132.875 C48.9425145 131.24609509 48.9470775 129.61718873 48.95117188 127.98828125 C48.96220603 123.99215173 48.97947321 119.99609158 49 116 C44.82317579 115.94977457 40.64652132 115.9138996 36.46948242 115.89013672 C35.05473765 115.88020869 33.64001266 115.86666175 32.2253418 115.84912109 C21.19753628 115.71602014 10.82663823 116.83467235 0 119 C0 79.73 0 40.46 0 0 Z " fill="#73C2F8" transform="translate(49,66)"/>
<path d="M0 0 C0.54541443 0.41100952 1.09082886 0.82201904 1.652771 1.2454834 C2.37031555 1.78515747 3.08786011 2.32483154 3.82714844 2.88085938 C4.53756287 3.4156189 5.24797729 3.95037842 5.97991943 4.50134277 C20.29310037 15.12000443 35.60923235 21.52184647 53 25 C53 114.76 53 204.52 53 297 C52.67 297 52.34 297 52 297 C52.00959496 296.19438346 52.01918991 295.38876692 52.02907562 294.55873775 C52.25764762 274.90056449 52.39673188 255.24358858 52.43784332 235.58410549 C52.45985385 226.07642684 52.51146251 216.57067581 52.63427734 207.0637207 C52.74132587 198.77127508 52.79128507 190.48071973 52.77444887 182.18756729 C52.76749076 177.80074069 52.78791601 173.41811955 52.87687683 169.03210258 C54.05897853 149.81002158 54.05897853 149.81002158 47.48730469 132.58621216 C44.27341323 129.25140483 40.79635159 126.61609201 36.86038208 124.19166756 C34.33054161 122.5711785 32.29214827 120.56892784 30.1875 118.4375 C23.38751409 112.48912523 11.46116185 104.76486947 2.06323242 105.06103516 C-3.7642606 105.11704995 -6.44310147 103.13341243 -10.62109375 99.125 C-12.59594513 97.11583516 -14.51937016 95.06317705 -16.4375 93 C-17.92147685 91.4436399 -19.4111127 89.89288961 -20.90211487 88.34326172 C-22.24292786 86.94355042 -23.56996418 85.53068069 -24.89624023 84.1171875 C-27.14174934 81.85734591 -28.03344654 81.0451073 -31.19318867 80.89764786 C-32.11100211 80.90807995 -33.02881556 80.91851204 -33.97444153 80.92926025 C-35.02700134 80.93825851 -36.07956116 80.94725677 -37.16401672 80.95652771 C-38.90391121 80.97852989 -38.90391121 80.97852989 -40.67895508 81.00097656 C-43.20473258 81.02374834 -45.73051519 81.04595868 -48.25630188 81.06768799 C-48.92294503 81.07406328 -49.58958818 81.08043857 -50.27643263 81.08700705 C-55.17083864 81.13319121 -60.06503797 81.15848671 -64.9596405 81.17108154 C-65.67054818 81.17291608 -66.38145587 81.17475062 -67.1139062 81.17664075 C-70.048612 81.18373849 -72.98331867 81.1900436 -75.91802752 81.19573832 C-84.23563552 81.21251884 -92.55186785 81.25001041 -100.86889648 81.35302734 C-107.47661932 81.43474138 -114.08277716 81.46984257 -120.69100493 81.45151305 C-124.18432058 81.44351983 -127.67408217 81.45804534 -131.16675758 81.5291214 C-155.21350643 81.99449042 -155.21350643 81.99449042 -162.35669231 75.54679489 C-164.37526495 73.37415889 -166.15765813 71.13968552 -167.82837486 68.69048309 C-169.75060322 65.91698973 -171.98738144 63.43132691 -174.1875 60.875 C-176.24979198 58.29617849 -178.16753583 55.74869626 -180 53 C-178.66813723 52.99503478 -178.66813723 52.99503478 -177.30936813 52.98996925 C-155.71887287 52.90879957 -134.12844822 52.81672697 -112.53805161 52.71247292 C-102.09716003 52.66232051 -91.65627641 52.6158779 -81.21533203 52.578125 C-72.11653015 52.54521573 -63.01778953 52.50539041 -53.91905522 52.45720994 C-49.09997773 52.43193438 -44.28094094 52.4101562 -39.46181488 52.39665604 C-34.92776466 52.3838453 -30.39385394 52.36180156 -25.85988045 52.33261681 C-24.19419168 52.3235333 -22.52848044 52.317849 -20.86276817 52.31578636 C-18.59127532 52.31246926 -16.3201793 52.29700713 -14.04876709 52.2784729 C-12.77669277 52.27294214 -11.50461845 52.26741138 -10.19399643 52.26171303 C-7.17381018 52.01424184 -5.48999631 51.66951064 -3 50 C-1.06752363 47.12077465 -0.73759301 44.74730921 -0.68115234 41.32324219 C-0.66128265 40.40258972 -0.64141296 39.48193726 -0.62094116 38.53338623 C-0.60938995 37.54783752 -0.59783875 36.56228882 -0.5859375 35.546875 C-0.56657135 34.53151672 -0.5472052 33.51615845 -0.5272522 32.47003174 C-0.46751901 29.23010635 -0.42109572 25.99014532 -0.375 22.75 C-0.33681449 20.55206792 -0.29776242 18.35415072 -0.2578125 16.15625 C-0.16182265 10.77096544 -0.07675677 5.38559117 0 0 Z " fill="#9AD7F8" transform="translate(342,169)"/>
<path d="M0 0 C1.15260476 -0.0034177 2.30520952 -0.0068354 3.4927417 -0.01035666 C6.68327116 -0.01579867 9.87314777 -0.00332722 13.06360006 0.01675558 C16.50728906 0.03405134 19.95094836 0.02818239 23.39466858 0.02514648 C29.35820579 0.02305046 35.32156775 0.03558593 41.28506088 0.05809784 C49.90720912 0.09062483 58.52927274 0.10102556 67.15147568 0.10604981 C81.1408369 0.11480137 95.13010475 0.14141316 109.11941528 0.17926025 C122.70762668 0.21598394 136.29581271 0.24429395 149.88406372 0.2612915 C150.72183314 0.2623424 151.55960255 0.26339329 152.42275892 0.26447603 C156.62565898 0.26969623 160.82855921 0.27475105 165.03145957 0.27972364 C199.89124834 0.32118135 234.75092866 0.39162599 269.61062622 0.48101807 C268.64965606 1.7693615 267.68771962 3.05698423 266.72537231 4.34429932 C265.92200943 5.41998169 265.92200943 5.41998169 265.10241699 6.51739502 C263.5459899 8.56609794 261.90064942 10.52017856 260.23562622 12.48101807 C254.21493046 20.15103582 250.21290483 29.47532154 246.61062622 38.48101807 C158.17062622 38.48101807 69.73062622 38.48101807 -21.38937378 38.48101807 C-21.38937378 10.48101807 -21.38937378 10.48101807 -17.38937378 4.48101807 C-12.05904526 -0.44351815 -6.87510963 -0.07445483 0 0 Z " fill="#2A438C" transform="translate(70.38937377929688,27.51898193359375)"/>
<path d="M0 0 C59.07 0 118.14 0 179 0 C177 10 177 10 176.3671875 13.00390625 C174.12651918 24.65182488 174.59985564 36.1113999 176.01660156 47.80981445 C176.11079376 48.59827003 176.20498596 49.38672562 176.30203247 50.19907379 C176.53326072 52.13288709 176.76643554 54.06646747 177 56 C162.15618277 56.02384513 147.31236705 56.04122274 132.46853447 56.05181217 C125.5691855 56.05686966 118.66984898 56.06375858 111.77050781 56.07543945 C97.11936168 56.09919717 82.46910888 56.09130975 67.81801987 56.02576637 C59.90937999 55.99526179 52.00353486 56.02354308 44.09519005 56.09576893 C39.06740454 56.1329083 34.04018389 56.12959264 29.0123024 56.11678886 C26.6579132 56.1196303 24.30347312 56.13979873 21.94939804 56.17836189 C3.97315434 56.46049007 3.97315434 56.46049007 -0.91046143 52.84573364 C-2.76351835 50.26066246 -3.90171958 47.97165593 -5 45 C-5.79928231 43.59655612 -6.60947523 42.19918018 -7.4375 40.8125 C-11.32066589 31.37238982 -9.63642517 20.2122771 -6 11 C-4.02 7.37 -2.04 3.74 0 0 Z " fill="#9AD7F8" transform="translate(137,66)"/>
<path d="M0 0 C20.03680599 -0.20339288 40.07277246 -0.36908256 60.11034966 -0.46630955 C69.41476348 -0.51265957 78.718489 -0.57581659 88.02246094 -0.67895508 C96.13464777 -0.76883903 104.24633601 -0.82676583 112.359007 -0.84679645 C116.65240994 -0.85850061 120.9443869 -0.88587873 125.23733139 -0.95157051 C129.28431445 -1.01299257 133.32929452 -1.03143996 137.37669945 -1.01796913 C138.85616282 -1.02043065 140.33569814 -1.03814205 141.81475639 -1.07284927 C149.56288352 -1.24563612 154.77575288 -0.96020724 160.71218872 4.3263092 C162.16891082 5.85856816 163.60042406 7.4153726 165 9 C166.31312479 10.27707322 167.63428436 11.54602463 168.96875 12.80078125 C170.14836338 13.96880454 171.3255092 15.13932589 172.5 16.3125 C173.40878906 17.20291992 173.40878906 17.20291992 174.3359375 18.11132812 C175.20605469 18.97854492 175.20605469 18.97854492 176.09375 19.86328125 C176.60615234 20.37157471 177.11855469 20.87986816 177.64648438 21.40356445 C180.08248616 24.27676353 181.01484803 26.05076925 180.95483398 29.88745117 C179.75078333 33.81239156 177.61558931 36.03555309 174.72265625 38.80078125 C173.93283607 39.58354683 173.93283607 39.58354683 173.12705994 40.38212585 C171.45026536 42.03765766 169.75661606 43.67471805 168.0625 45.3125 C166.92664551 46.43183885 165.79186741 47.55227109 164.65820312 48.67382812 C155.04899949 58.1260561 155.04899949 58.1260561 147.91305542 58.12025452 C146.61452637 58.12162918 145.31599731 58.12300385 143.9781189 58.12442017 C142.53082253 58.12088077 141.08352639 58.11724596 139.63623047 58.11352539 C138.1187134 58.11324345 136.60119619 58.11340139 135.0836792 58.1139679 C130.95581823 58.1142556 126.82798613 58.10836326 122.70013189 58.10139394 C118.38929229 58.09515587 114.07845207 58.09455624 109.76760864 58.09336853 C101.60074678 58.09025656 93.43389826 58.08204496 85.26704228 58.07201904 C75.97092308 58.06085376 66.67480326 58.05534641 57.37867904 58.05032361 C38.25244359 58.03986224 19.12622643 58.02151841 0 58 C0 38.86 0 19.72 0 0 Z " fill="#D3DCFB" transform="translate(158,333)"/>
<path d="M0 0 C0 3.3 0 6.6 0 10 C-0.763125 10.268125 -1.52625 10.53625 -2.3125 10.8125 C-5.00625266 12.0027628 -6.23517607 12.6914887 -8 15 C-8.37562744 17.53091714 -8.37562744 17.53091714 -8.23046875 20.3671875 C-8.22982422 21.41777344 -8.22917969 22.46835937 -8.22851562 23.55078125 C-8.20126421 25.75944391 -8.15451732 27.96795556 -8.08789062 30.17578125 C-8.13161847 38.11481427 -8.13161847 38.11481427 -10.71582031 40.74902344 C-12.7623283 41.991983 -14.82736497 42.99932018 -17 44 C-18.99833636 45.73023423 -18.99833636 45.73023423 -20.375 47.5 C-20.83648437 48.0465625 -21.29796875 48.593125 -21.7734375 49.15625 C-26.05377019 55.59038067 -25.6472462 62.5400726 -25 70 C-23.31470919 77.28514951 -19.01861544 81.79380853 -13 86 C-6.41299155 89.85277853 0.310242 90.03755708 7.6484375 88.4140625 C14.83577516 86.00354002 18.57797338 82.09934706 23 76 C24.32 72.04 25.64 68.08 27 64 C38.88 64 50.76 64 63 64 C63 82.25860162 57.75290663 95.4838505 45.26953125 108.75390625 C32.71653487 121.17726756 16.37699403 127.16115594 -1.125 127.375 C-18.05736466 127.14759838 -34.42690482 120.16479145 -46.3125 108.0390625 C-58.36541568 94.85510674 -64.47886256 78.33179801 -64.27734375 60.44140625 C-62.83349393 42.52546695 -54.79005045 27.29268973 -41.9375 14.875 C-29.98506891 4.71543357 -15.68569204 -0.69201583 0 0 Z " fill="#D2DBF9" transform="translate(409,34)"/>
<path d="M0 0 C13.86 0.495 13.86 0.495 28 1 C28.22620806 32.29601381 28.40517285 63.59173287 28.51065329 94.88836747 C28.52315991 98.58573593 28.53610317 102.28310275 28.54931641 105.98046875 C28.55325106 107.08455687 28.55325106 107.08455687 28.55726521 108.21094979 C28.6007428 120.11902621 28.67956798 132.02661838 28.77152796 143.93440782 C28.86514423 156.15890003 28.92060881 168.38313917 28.94088495 180.60797513 C28.95458609 188.1477166 28.99780628 195.68608928 29.07916467 203.22540922 C29.13842747 209.01307111 29.14452705 214.79986197 29.13107681 220.58776665 C29.13382383 222.95733618 29.15366261 225.3269584 29.19205475 227.69621849 C29.48222581 246.53000803 29.48222581 246.53000803 25.81017685 251.58716202 C23.33292492 254.10592668 20.94012049 256.05922719 18 258 C16.91985147 258.92200469 15.84851885 259.85462041 14.79296875 260.8046875 C13.93316406 261.48789062 13.07335937 262.17109375 12.1875 262.875 C11.31480469 263.57367188 10.44210937 264.27234375 9.54296875 264.9921875 C8.70378906 265.65476562 7.86460937 266.31734375 7 267 C6.10925781 267.74507813 5.21851563 268.49015625 4.30078125 269.2578125 C2 271 2 271 0 271 C0 181.57 0 92.14 0 0 Z " fill="#167CC0" transform="translate(395,194)"/>
<path d="M0 0 C1.87378075 -0.0010952 1.87378075 -0.0010952 3.78541565 -0.00221252 C7.20296118 0.00067068 10.61898954 0.02571253 14.03626657 0.06065726 C17.61032897 0.09195132 21.18441243 0.09485387 24.7585907 0.1007843 C31.52306828 0.11631393 38.28714098 0.15732997 45.05144042 0.20753175 C52.75389182 0.26345304 60.45636274 0.29091864 68.15896666 0.31600893 C84.00033647 0.368247 99.84130251 0.45617157 115.68237305 0.56762695 C113.34398947 2.12654934 111.46252355 3.10972254 108.93237305 4.19262695 C101.45078744 7.93341976 97.09073111 14.30171673 94.33862305 22.05981445 C92.2364238 30.09321873 93.8154245 37.6107533 97.9362793 44.7355957 C102.64807817 51.57861696 108.69693051 55.37163025 116.68237305 57.56762695 C116.68237305 57.89762695 116.68237305 58.22762695 116.68237305 58.56762695 C101.96506964 58.8258403 87.24807024 59.01916845 72.52895355 59.13756084 C65.69276215 59.19402179 58.85798673 59.27083466 52.02270508 59.39746094 C45.41561867 59.51980031 38.80960675 59.58291008 32.20133972 59.61127663 C29.69118728 59.63146838 27.1811073 59.67089806 24.67158508 59.73065758 C8.27929886 60.10517965 -1.9425892 58.68574636 -14.31762695 47.56762695 C-15.30762695 46.90762695 -16.29762695 46.24762695 -17.31762695 45.56762695 C-17.64659242 42.57538001 -17.78566593 39.79497608 -17.78637695 36.7980957 C-17.79399048 35.92494217 -17.801604 35.05178864 -17.80944824 34.1521759 C-17.82026623 32.30200054 -17.82309546 30.45176403 -17.81860352 28.6015625 C-17.81763413 25.77605421 -17.85917157 22.95328754 -17.90356445 20.12817383 C-17.90877364 18.33065345 -17.91145961 16.53312363 -17.91137695 14.7355957 C-17.92777222 13.89272507 -17.94416748 13.04985443 -17.96105957 12.18144226 C-17.95175415 11.38744522 -17.94244873 10.59344818 -17.93286133 9.77539062 C-17.93491577 9.08193039 -17.93697021 8.38847015 -17.93908691 7.67399597 C-15.3463375 -1.11383813 -7.52923209 -0.11480723 0 0 Z " fill="#BEC8F6" transform="translate(117.317626953125,416.432373046875)"/>
<path d="M0 0 C1.08251038 -0.00549866 2.16502075 -0.01099731 3.28033447 -0.0166626 C4.4628479 -0.00228149 5.64536133 0.01209961 6.8637085 0.0269165 C8.11274963 0.0263324 9.36179077 0.02574829 10.64868164 0.02514648 C14.07020231 0.02745534 17.49075686 0.04751034 20.91210651 0.07544231 C24.48886072 0.10045262 28.06562789 0.10279766 31.64245605 0.10754395 C38.41397985 0.11997488 45.18524524 0.15279785 51.95665526 0.1929419 C59.66635924 0.23765614 67.37607557 0.25964574 75.08587694 0.27972364 C90.94393658 0.32153056 106.80173843 0.39188464 122.65960693 0.48101807 C119.65960693 2.48101807 119.65960693 2.48101807 117.39007568 3.67242432 C109.6820057 7.82838832 105.95425768 12.57880965 102.28460693 20.41851807 C100.3711204 29.79460209 101.9512605 38.01867906 106.72210693 46.33258057 C110.03175577 50.8143967 114.78799796 53.07571561 119.65960693 55.48101807 C120.99315354 56.14725801 122.3265182 56.81386243 123.65960693 57.48101807 C106.90923731 57.59778814 90.15899958 57.68597496 73.40832138 57.74007893 C65.63077952 57.76586742 57.85349045 57.80102986 50.07611084 57.85821533 C43.29780957 57.90803105 36.51969137 57.9403044 29.74121213 57.95146054 C26.15151132 57.95798258 22.56233425 57.97332333 18.97280121 58.00966835 C14.966799 58.04990172 10.96170889 58.05096872 6.95550537 58.04864502 C5.7636412 58.0666214 4.57177704 58.08459778 3.34379578 58.1031189 C-4.63835117 58.05282773 -4.63835117 58.05282773 -8.07653809 55.25244141 C-9.36245927 52.43263056 -9.84615914 50.64965659 -9.85797119 47.57061768 C-9.87057983 46.62291 -9.88318848 45.67520233 -9.8961792 44.69877625 C-9.88808228 43.68718948 -9.87998535 42.67560272 -9.87164307 41.63336182 C-9.87546997 40.58451309 -9.87929687 39.53566437 -9.88323975 38.45503235 C-9.88595723 36.2419234 -9.87860761 34.02878224 -9.86187744 31.81573486 C-9.84044508 28.42674315 -9.86169683 25.0398663 -9.88726807 21.65093994 C-9.88462518 19.49924255 -9.87950102 17.34754648 -9.87164307 15.19586182 C-9.87973999 14.18225082 -9.88783691 13.16863983 -9.8961792 12.12431335 C-9.88357056 11.17975784 -9.87096191 10.23520233 -9.85797119 9.26202393 C-9.85478882 8.43327255 -9.85160645 7.60452118 -9.84832764 6.75065613 C-8.66240198 1.45150509 -5.02929814 -0.01972274 0 0 Z " fill="#BEC7F6" transform="translate(109.34039306640625,248.51898193359375)"/>
<path d="M0 0 C0.77762695 -0.01139008 1.55525391 -0.02278015 2.35644531 -0.03451538 C10.48534273 -0.14510173 18.61513798 -0.19258276 26.74462891 -0.23535156 C30.59859793 -0.25761944 34.4515975 -0.29937923 38.30517578 -0.35839844 C42.96421072 -0.42960711 47.62233399 -0.46620076 52.28188515 -0.47846985 C54.05330821 -0.48884953 55.82470486 -0.51122427 57.59581566 -0.54606628 C73.18735308 -0.83690971 73.18735308 -0.83690971 78.23510742 3.51245117 C79.31083375 4.71767876 80.35553533 5.95215149 81.35083008 7.22460938 C82.12998779 7.96106689 82.90914551 8.69752441 83.71191406 9.45629883 C84.33396729 10.07722412 84.95602051 10.69814941 85.59692383 11.33789062 C86.28850586 12.02818359 86.98008789 12.71847656 87.69262695 13.4296875 C88.73 14.47286133 88.73 14.47286133 89.78833008 15.53710938 C90.86630859 16.60928711 90.86630859 16.60928711 91.96606445 17.703125 C92.64862305 18.38697266 93.33118164 19.07082031 94.03442383 19.77539062 C94.64858154 20.39067627 95.26273926 21.00596191 95.89550781 21.63989258 C97.99394258 23.92490182 98.35175134 25.23036728 98.85083008 28.34960938 C98.32392767 32.43310302 97.96728808 33.06859527 95.33911133 35.93945312 C94.70376465 36.63554687 94.06841797 37.33164062 93.41381836 38.04882812 C90.00786941 41.64099582 86.5483215 45.17163598 83.03833008 48.66210938 C81.96615234 49.74008789 81.96615234 49.74008789 80.87231445 50.83984375 C80.1884668 51.52240234 79.50461914 52.20496094 78.80004883 52.90820312 C78.18476318 53.52236084 77.56947754 54.13651855 76.93554688 54.76928711 C73.84512215 57.60737397 71.38824908 57.37351002 67.29321289 57.42993164 C66.00077164 57.44987183 64.70833038 57.46981201 63.37672424 57.49035645 C61.93580347 57.5074363 60.49488031 57.52431589 59.05395508 57.54101562 C57.54234914 57.56175034 56.03074742 57.58279453 54.51914978 57.60412598 C50.40493197 57.66047124 46.29065689 57.70968821 42.17632675 57.75703812 C39.60830495 57.7870221 37.04031293 57.81888852 34.47232056 57.85128784 C-4.23437688 58.33561223 -42.94018639 58.33122971 -81.64916992 58.22460938 C-81.64916992 57.89460938 -81.64916992 57.56460938 -81.64916992 57.22460938 C-46.50416992 56.72960937 -46.50416992 56.72960937 -10.64916992 56.22460938 C-13.94916992 54.24460937 -17.24916992 52.26460938 -20.64916992 50.22460938 C-27.16046727 43.00298868 -30.33526106 35.51284951 -30.00073242 25.70507812 C-29.39531615 21.43353002 -27.7572466 17.95374831 -25.64916992 14.22460938 C-25.31014648 13.59554688 -24.97112305 12.96648437 -24.62182617 12.31835938 C-19.21789145 3.54898488 -9.83643946 0.09918826 0 0 Z " fill="#D2DBFA" transform="translate(239.649169921875,248.775390625)"/>
<path d="M0 0 C0.75855789 -0.0115361 1.51711578 -0.0230722 2.29866028 -0.03495789 C4.79239022 -0.06909202 7.28587368 -0.08772897 9.77978516 -0.10327148 C10.63586994 -0.11017439 11.49195473 -0.11707729 12.37398148 -0.12418938 C16.90248024 -0.15994574 21.43085568 -0.18352813 25.95947266 -0.19726562 C30.62255812 -0.21382553 35.28413036 -0.27228888 39.94670677 -0.34040928 C43.54653354 -0.38528907 47.1459998 -0.39876678 50.74608231 -0.40388298 C52.46445721 -0.41175174 54.18282193 -0.43132139 55.90092087 -0.46310616 C70.99430857 -0.72397898 70.99430857 -0.72397898 76.0168457 3.60961914 C77.10961517 4.822873 78.1735335 6.06334496 79.19384766 7.33813477 C80.03359131 8.11423096 80.87333496 8.89032715 81.73852539 9.68994141 C84.04930372 11.9136798 86.34315254 14.15366839 88.63134766 16.40063477 C89.44539063 17.17729492 90.25943359 17.95395508 91.09814453 18.75415039 C92.25733398 19.8959375 92.25733398 19.8959375 93.43994141 21.06079102 C94.13788818 21.73891846 94.83583496 22.4170459 95.55493164 23.11572266 C97.62716328 25.92572186 98.09202662 27.85963067 98.19384766 31.33813477 C97.08764648 33.34228516 97.08764648 33.34228516 95.33837891 35.12329102 C94.36505615 36.13866943 94.36505615 36.13866943 93.37207031 37.17456055 C92.65325684 37.88854004 91.93444336 38.60251953 91.19384766 39.33813477 C90.45569824 40.09980957 89.71754883 40.86148438 88.95703125 41.64624023 C86.62012574 44.04527913 84.25530175 46.41328925 81.88134766 48.77563477 C81.07117188 49.58967773 80.26099609 50.4037207 79.42626953 51.24243164 C78.6521875 52.01522461 77.87810547 52.78801758 77.08056641 53.58422852 C76.3814917 54.28217529 75.68241699 54.98012207 74.9621582 55.69921875 C71.55935128 58.85302834 68.37507665 58.49835242 63.96533203 58.51513672 C63.2203244 58.52170792 62.47531677 58.52827911 61.70773315 58.53504944 C59.23435364 58.55480674 56.76103513 58.56645498 54.28759766 58.57641602 C53.44137344 58.58049154 52.59514923 58.58456707 51.72328186 58.5887661 C47.237887 58.6096446 42.75252282 58.62393439 38.26708984 58.63330078 C33.65162305 58.64432418 29.03664386 58.67867134 24.42134857 58.71847248 C20.85920369 58.74473702 17.29717275 58.75300166 13.73493958 58.75658226 C12.0350264 58.76142872 10.33511764 58.77298685 8.63529968 58.79162025 C-3.65262502 58.91786619 -13.69680106 58.13679032 -23.04833984 49.33422852 C-28.88425083 42.70722738 -31.22482752 35.5423804 -31.07958984 26.79907227 C-30.15207179 18.45140974 -25.80532442 11.98441437 -19.80615234 6.33813477 C-13.56066674 1.49469695 -7.80353301 0.04216227 0 0 Z " fill="#D3DCFB" transform="translate(240.80615234375,416.661865234375)"/>
<path d="M0 0 C83.82 0 167.64 0 254 0 C254 0.66 254 1.32 254 2 C253.11441406 2.1959375 252.22882813 2.391875 251.31640625 2.59375 C235.94592279 6.30441822 216.49464989 13.21307593 206.33563614 26.11349106 C203.00082557 28.80703987 199.87603274 28.54212284 195.77435303 28.48101807 C194.93789065 28.48443577 194.10142827 28.48785347 193.23961854 28.49137473 C190.43251072 28.49797136 187.62635588 28.47594836 184.81933594 28.45410156 C182.8089195 28.45297347 180.79850141 28.4536062 178.78808594 28.45587158 C173.32554327 28.45702114 167.86335059 28.43347249 162.4008894 28.40557575 C156.69405571 28.38060251 150.98721437 28.37822331 145.28033447 28.37347412 C134.47143692 28.36103237 123.66270084 28.32819444 112.85387444 28.28807616 C100.54932272 28.24339584 88.24476336 28.22138081 75.94015074 28.20129442 C50.62667758 28.15946293 25.31334783 28.08908749 0 28 C-0.83070191 26.61032463 -1.64849476 25.21292854 -2.4609375 23.8125 C-2.91774902 23.03519531 -3.37456055 22.25789063 -3.84521484 21.45703125 C-5.93873708 17.00265328 -5.61291897 13.90335175 -5 9 C-3.35 6.03 -1.7 3.06 0 0 Z " fill="#167CC0" transform="translate(137,0)"/>
<path d="M0 0 C1.27327904 -0.00021904 1.27327904 -0.00021904 2.57228088 -0.0004425 C5.38594086 0.00025573 8.19953514 0.00804399 11.01318359 0.01586914 C12.96088627 0.01773364 14.90858941 0.01915739 16.85629272 0.02015686 C21.98882334 0.02397956 27.12132576 0.03380775 32.25384521 0.04486084 C37.48872496 0.05508027 42.72360925 0.05965562 47.95849609 0.06469727 C58.23455016 0.07543022 68.51058329 0.09250369 78.78662109 0.11352539 C77.89136719 0.53698242 77.89136719 0.53698242 76.97802734 0.96899414 C71.95412597 3.59288559 68.2830123 7.0490076 65.78662109 12.11352539 C65.21507671 15.45850938 65.21507671 15.45850938 65.09912109 18.92602539 C65.03337891 20.0874707 64.96763672 21.24891602 64.89990234 22.44555664 C64.86251953 23.32598633 64.82513672 24.20641602 64.78662109 25.11352539 C58.78662109 23.11352539 58.78662109 23.11352539 55.83349609 22.01196289 C47.72039172 19.61963724 38.61701601 20.19752401 30.96630859 23.79711914 C24.01473667 27.99546993 19.12364996 34.32687611 16.78662109 42.11352539 C15.56159412 52.18238745 16.54526842 59.93712587 22.25927734 68.25805664 C26.45710477 73.60706132 31.19543144 77.26696642 37.78662109 79.11352539 C46.18477367 79.98432087 54.08868995 79.96249096 61.78662109 76.11352539 C64.66991031 78.5123595 65.22234987 80.25576619 65.72412109 83.92602539 C66.55204983 88.51301764 67.6389532 91.54049697 70.78662109 95.11352539 C73.06088221 96.67860831 75.30532732 97.8728785 77.78662109 99.11352539 C77.78662109 99.44352539 77.78662109 99.77352539 77.78662109 100.11352539 C66.66003896 100.20621057 55.53354869 100.27728299 44.40665913 100.32077408 C39.2399615 100.3416478 34.07352802 100.36996173 28.90698242 100.4152832 C23.92084851 100.45874831 18.93496864 100.48266412 13.9486599 100.49303436 C12.04643949 100.50042452 10.14423298 100.51485579 8.24212074 100.53644562 C5.57736808 100.56548853 2.9136648 100.56948104 0.2487793 100.56762695 C-0.53740784 100.58200806 -1.32359497 100.59638916 -2.13360596 100.61120605 C-5.87661592 100.58303111 -7.99778905 100.25185866 -11.17976379 98.21014404 C-14.86389587 94.41187367 -14.37362887 90.92044369 -14.39038086 85.88769531 C-14.39695206 85.03712051 -14.40352325 84.18654572 -14.41029358 83.31019592 C-14.43004586 80.48812782 -14.44169329 77.66611297 -14.45166016 74.84399414 C-14.45573568 73.88120356 -14.45981121 72.91841297 -14.46401024 71.92644691 C-14.48487895 66.83084959 -14.49917735 61.73527927 -14.50854492 56.63964844 C-14.51961266 51.37353635 -14.55401452 46.10784643 -14.59371662 40.84188366 C-14.61984813 36.79526477 -14.62823366 32.74874701 -14.6318264 28.70205116 C-14.63670112 26.76076722 -14.64834022 24.81948805 -14.6668644 22.87828636 C-14.69118281 20.16102926 -14.6903043 17.44487141 -14.68334961 14.72753906 C-14.69615967 13.92579254 -14.70896973 13.12404602 -14.72216797 12.29800415 C-14.68695941 8.52338645 -14.36407455 6.3490105 -12.30900574 3.13764954 C-8.49970649 -0.54167661 -5.03400828 -0.02244588 0 0 Z " fill="#1E9EF4" transform="translate(112.21337890625,121.886474609375)"/>
<path d="M0 0 C-0.02320313 0.60328125 -0.04640625 1.2065625 -0.0703125 1.828125 C-0.08835937 2.62734375 -0.10640625 3.4265625 -0.125 4.25 C-0.14820313 5.03890625 -0.17140625 5.8278125 -0.1953125 6.640625 C0.19730598 11.3834563 2.61003666 13.83603422 6 17 C5.32195312 17.40089844 4.64390625 17.80179688 3.9453125 18.21484375 C-12.94173465 28.52950828 -23.44672186 41.28710047 -28.67578125 60.48046875 C-32.26495199 75.83821292 -29.37873553 92.16028212 -22 106 C-12.24613231 121.21906981 0.65896207 130.96092622 18 136 C36.17098084 139.79177649 54.41405429 135.85785147 70 126 C71.13209043 125.10237751 72.2477843 124.18357693 73.34375 123.2421875 C76 121 76 121 78 121 C78.495 122.85625 78.495 122.85625 79 124.75 C80.33652354 128.42706965 81.67853123 129.78588428 85.1875 131.5 C86.44750055 132.02670293 87.71549949 132.53623735 89 133 C86.08700223 140.89904917 74.47189536 145.97245802 67.25 149.375 C48.27719022 157.63698351 24.97732148 159.95997988 5.328125 152.4765625 C4.22984375 151.98929688 3.1315625 151.50203125 2 151 C0.94296875 150.55398437 -0.1140625 150.10796875 -1.203125 149.6484375 C-22.46818784 139.88831891 -37.0499983 122.51763165 -45.15234375 100.9296875 C-49.25911462 89.26704281 -49.25351509 78.20451449 -49 66 C-48.98324219 65.12859375 -48.96648437 64.2571875 -48.94921875 63.359375 C-47.5802424 42.86384337 -33.9107555 23.54343966 -19.08984375 10.40625 C-5.72727273 0 -5.72727273 0 0 0 Z " fill="#FE9101" transform="translate(376,23)"/>
<path d="M0 0 C1.22589844 0.00684814 2.45179688 0.01369629 3.71484375 0.02075195 C17.99731244 0.27216408 30.40253123 3.2025719 43.3125 9.4375 C44.199375 9.85515625 45.08625 10.2728125 46 10.703125 C68.31180157 21.98874556 85.09122264 41.9517168 93.3125 65.4375 C101.54407374 92.72723779 99.96595899 120.4367939 86.53515625 145.79296875 C83.02187389 151.80650114 79.01175054 157.28471031 74.5625 162.625 C74.10270752 163.17816895 73.64291504 163.73133789 73.16918945 164.30126953 C70.79166307 167.0566551 68.74633012 169.12975629 65.3125 170.4375 C61.88493132 168.79822802 59.95067264 167.67174362 58.1875 164.26171875 C57.34449033 161.43851448 57.01599453 159.37639248 57.3125 156.4375 C58.92522551 153.89156816 60.80068167 152.01377311 62.94921875 149.90234375 C70.52444282 142.00157286 74.95585583 131.7108655 78.3125 121.4375 C78.79203125 120.06078125 78.79203125 120.06078125 79.28125 118.65625 C85.00556324 99.78721748 81.62688058 77.28832999 72.59008789 60.02270508 C69.08309911 53.70627232 64.96195726 47.97256817 60.3125 42.4375 C59.77367187 41.78523438 59.23484375 41.13296875 58.6796875 40.4609375 C47.53005718 28.19074132 27.97517891 18.84941742 11.70629883 17.03540039 C7.96176195 16.86745149 4.2479752 16.8329958 0.5 16.875 C-1.46924438 16.88164673 -1.46924438 16.88164673 -3.47827148 16.88842773 C-12.25353427 17.04977566 -19.65012977 18.10774569 -27.75390625 21.44140625 C-30.9801898 22.53688202 -32.49970852 22.54822874 -35.6875 21.4375 C-38.1465304 19.24431072 -39.54441864 17.66391168 -39.93359375 14.328125 C-39.93707824 12.36287365 -39.82043244 10.39825342 -39.6875 8.4375 C-37.60706581 7.65887596 -35.52294091 6.89011306 -33.4375 6.125 C-32.27734375 5.69574219 -31.1171875 5.26648438 -29.921875 4.82421875 C-19.88310225 1.42528364 -10.61091971 -0.09149869 0 0 Z " fill="#FEDC3F" transform="translate(408.6875,-0.4375)"/>
<path d="M0 0 C1.09586426 0.0004834 2.19172852 0.0009668 3.32080078 0.00146484 C4.46629395 0.02192871 5.61178711 0.04239258 6.79199219 0.06347656 C7.84950684 0.06750488 8.90702148 0.0715332 9.99658203 0.07568359 C13.94418709 0.0966003 17.89154469 0.15244581 21.83886719 0.20410156 C30.66636719 0.28660156 39.49386719 0.36910156 48.58886719 0.45410156 C48.58886719 19.59410156 48.58886719 38.73410156 48.58886719 58.45410156 C35.62605469 58.60878906 35.62605469 58.60878906 22.40136719 58.76660156 C19.67991455 58.81212158 16.95846191 58.8576416 14.15454102 58.90454102 C11.99333936 58.9191464 9.83212395 58.93188694 7.67089844 58.94238281 C6.55211304 58.96796265 5.43332764 58.99354248 4.28063965 59.01989746 C-0.41989415 59.02253851 -3.50071199 58.97469749 -7.62695312 56.61523438 C-10.28313226 51.90913045 -10.10830134 47.70865285 -10.04003906 42.38769531 C-10.043657 40.78112816 -10.043657 40.78112816 -10.04734802 39.1421051 C-10.04637003 36.88188975 -10.03298811 34.62165032 -10.00805664 32.36157227 C-9.97371665 28.90005296 -9.98740953 25.441082 -10.00683594 21.97949219 C-9.99993838 19.78221569 -9.99026683 17.58494578 -9.97753906 15.38769531 C-9.98249893 14.35221054 -9.9874588 13.31672577 -9.99256897 12.24986267 C-9.97673264 11.28528641 -9.9608963 10.32071014 -9.94458008 9.3269043 C-9.9383815 8.48038803 -9.93218292 7.63387177 -9.92579651 6.76170349 C-8.70994944 1.3101998 -5.17125228 -0.04832946 0 0 Z " fill="#FEDC41" transform="translate(109.4111328125,332.5458984375)"/>
<path d="M0 0 C25.08 0 50.16 0 76 0 C72 2 72 2 70.140625 2.75390625 C63.30984894 5.6753332 58.23782473 10.65158472 54.83203125 17.26953125 C51.6503382 25.79885862 52.45814046 33.13732363 55.8125 41.48828125 C58.78274132 47.77073247 62.86812827 50.82426635 69.01171875 53.921875 C71 55 71 55 73 57 C48.91 57 24.82 57 0 57 C0 38.19 0 19.38 0 0 Z " fill="#BEC8F6" transform="translate(158,333)"/>
<path d="M0 0 C1.09586426 0.0004834 2.19172852 0.0009668 3.32080078 0.00146484 C4.46629395 0.02192871 5.61178711 0.04239258 6.79199219 0.06347656 C7.84950684 0.06750488 8.90702148 0.0715332 9.99658203 0.07568359 C13.94418709 0.0966003 17.89154469 0.15244581 21.83886719 0.20410156 C30.66636719 0.28660156 39.49386719 0.36910156 48.58886719 0.45410156 C48.58886719 19.26410156 48.58886719 38.07410156 48.58886719 57.45410156 C35.34761719 57.60878906 35.34761719 57.60878906 21.83886719 57.76660156 C17.66472168 57.83488159 17.66472168 57.83488159 13.40625 57.90454102 C11.20150967 57.91914351 8.99675588 57.93188474 6.79199219 57.94238281 C5.64649902 57.96796265 4.50100586 57.99354248 3.32080078 58.01989746 C-4.57108959 58.02424897 -4.57108959 58.02424897 -8.140625 55.6015625 C-10.02800127 50.92591783 -9.98240443 46.60653373 -9.94238281 41.60644531 C-9.94620972 40.55759659 -9.95003662 39.50874786 -9.95397949 38.42811584 C-9.95669697 36.2150069 -9.94934736 34.00186574 -9.93261719 31.78881836 C-9.91118483 28.39982664 -9.93243658 25.01294979 -9.95800781 21.62402344 C-9.95536493 19.47232605 -9.95024077 17.32062998 -9.94238281 15.16894531 C-9.95047974 14.15533432 -9.95857666 13.14172333 -9.96691895 12.09739685 C-9.9543103 11.15284134 -9.94170166 10.20828583 -9.92871094 9.23510742 C-9.92552856 8.40635605 -9.92234619 7.57760468 -9.91906738 6.72373962 C-8.70403244 1.2945176 -5.14029155 -0.04804011 0 0 Z " fill="#FE4155" transform="translate(109.4111328125,248.5458984375)"/>
<path d="M0 0 C1.03684937 0.0050354 2.07369873 0.0100708 3.14196777 0.01525879 C7.00508379 0.04136569 10.86780481 0.11117291 14.73046875 0.17578125 C23.37234375 0.27890625 32.01421875 0.38203125 40.91796875 0.48828125 C40.91796875 19.62828125 40.91796875 38.76828125 40.91796875 58.48828125 C34.81296875 58.71515625 28.70796875 58.94203125 22.41796875 59.17578125 C19.58235352 59.32599731 19.58235352 59.32599731 16.68945312 59.47924805 C4.29759043 59.85203197 -3.17713377 56.73064997 -12.59802246 48.71418762 C-14.27839215 47.28352011 -14.27839215 47.28352011 -17.08203125 45.48828125 C-17.41099672 42.49603431 -17.55007023 39.71563038 -17.55078125 36.71875 C-17.55839478 35.84559647 -17.5660083 34.97244293 -17.57385254 34.0728302 C-17.58467053 32.22265484 -17.58749976 30.37241833 -17.58300781 28.5222168 C-17.58203843 25.69670851 -17.62357587 22.87394184 -17.66796875 20.04882812 C-17.67317794 18.25130774 -17.67586391 16.45377793 -17.67578125 14.65625 C-17.69217651 13.81337936 -17.70857178 12.97050873 -17.72546387 12.10209656 C-17.67895262 8.13346376 -17.33804036 5.92538023 -15.30004883 2.44580078 C-10.33651892 -0.57351359 -5.69817458 -0.13028268 0 0 Z " fill="#39C675" transform="translate(117.08203125,416.51171875)"/>
<path d="M0 0 C1.15711235 -0.00087616 1.15711235 -0.00087616 2.33760071 -0.00177002 C4.87022974 0.00100172 7.40166035 0.0320489 9.93408203 0.06347656 C11.6966996 0.07094223 13.45932549 0.07663362 15.22195435 0.08062744 C19.8482986 0.09585819 24.47413598 0.13511767 29.10028076 0.17944336 C33.82606145 0.22045149 38.55192449 0.23865027 43.27783203 0.25878906 C52.54107487 0.30161462 61.80394245 0.36983471 71.06689453 0.45410156 C71.06689453 3.42410156 71.06689453 6.39410156 71.06689453 9.45410156 C70.11814453 9.90785156 69.16939453 10.36160156 68.19189453 10.82910156 C65.06375775 12.2564841 65.06375775 12.2564841 63.06689453 14.45410156 C62.37694634 19.05910463 62.14608832 23.15227208 64.87939453 27.01660156 C67.09347916 28.60558678 67.09347916 28.60558678 70.06689453 29.45410156 C70.06689453 32.42410156 70.06689453 35.39410156 70.06689453 38.45410156 C41.02689453 38.45410156 11.98689453 38.45410156 -17.93310547 38.45410156 C-17.93310547 10.45410156 -17.93310547 10.45410156 -13.93310547 4.45410156 C-9.42017966 0.60899617 -5.76269171 -0.11556216 0 0 Z " fill="#1D2F7A" transform="translate(66.93310546875,27.5458984375)"/>
<path d="M0 0 C6.27218848 4.04617649 10.25500444 9.78696296 12.62109375 16.85546875 C13.84188708 23.7649073 13.63619398 31.3593205 11.8125 38.125 C10.5657191 41.86706466 10.5657191 41.86706466 12.375 44.25 C12.91125 44.8275 13.4475 45.405 14 46 C14.5 48.4375 14.5 48.4375 14 51 C11.52252602 54.27900967 10.10290843 55.81618193 6 56.5 C3 56 3 56 0.5625 54.3125 C-0.283125 53.879375 -1.12875 53.44625 -2 53 C-3.68714156 53.73760499 -5.37270084 54.47936933 -7.04467773 55.25073242 C-13.18693153 57.60440665 -21.78095527 56.93819309 -28.015625 55.12109375 C-36.7030197 51.08385357 -42.43429664 44.81840615 -46 36 C-48.39411065 28.81766804 -48.19745114 19.45096856 -45 12.5625 C-40.62141443 5.19126772 -35.04851368 -0.5448199 -26.8359375 -3.375 C-17.4832294 -5.43620289 -8.35404152 -4.80581959 0 0 Z " fill="#E6EDFE" transform="translate(175,146)"/>
<path d="M0 0 C4.23595306 2.34296305 4.23595306 2.34296305 6 5 C6.74621021 9.12516815 6.5653164 13.13773904 6.375 17.3125 C6.33439453 18.99569336 6.33439453 18.99569336 6.29296875 20.71289062 C6.22239001 23.47722459 6.12384488 26.23762415 6 29 C6.91523438 29.26554687 7.83046875 29.53109375 8.7734375 29.8046875 C14.48570959 31.9208561 18.30444566 36.41454852 21.4375 41.5625 C24.34865971 48.04014543 24.02498955 55.8757817 22.33984375 62.65625 C19.4360942 69.99733111 14.41724331 75.18379907 7.25 78.4375 C-0.13208064 81.01004325 -6.97021896 81.24561936 -14.1875 78.0625 C-20.31152346 74.62445174 -25.46181959 69.67454208 -28.1953125 63.14453125 C-29.93700316 56.33840996 -30.40979048 48.08112847 -27.4375 41.5625 C-23.54930493 35.17376959 -19.21811871 31.09427106 -12 29 C-12.02618408 28.29915283 -12.05236816 27.59830566 -12.0793457 26.8762207 C-12.1835354 23.6885435 -12.24839583 20.50122474 -12.3125 17.3125 C-12.35439453 16.20970703 -12.39628906 15.10691406 -12.43945312 13.97070312 C-12.56304062 5.78921117 -12.56304062 5.78921117 -9.6953125 1.76953125 C-6.10059147 -0.59048125 -4.22654876 -0.74149978 0 0 Z " fill="#3D59A0" transform="translate(412,44)"/>
<path d="M0 0 C15.2584378 -1.07076756 30.33601402 5.05874642 41.81933594 14.90991211 C53.68581469 25.60873829 61.47379061 39.12390358 64 55 C64 57.64 64 60.28 64 63 C51.46 63 38.92 63 26 63 C25.34 59.7 24.68 56.4 24 53 C20.70581095 46.60482948 15.40773072 42.10923642 9 39 C8.99589111 38.29391602 8.99178223 37.58783203 8.98754883 36.86035156 C8.95462075 33.65605397 8.88397754 30.45365979 8.8125 27.25 C8.80669922 26.13882813 8.80089844 25.02765625 8.79492188 23.8828125 C8.78720936 17.53291313 8.78720936 17.53291313 5.63671875 12.296875 C2.99166533 10.92225268 2.99166533 10.92225268 0 10 C0 6.7 0 3.4 0 0 Z " fill="#FE4155" transform="translate(409,34)"/>
<path d="M0 0 C0.33 0 0.66 0 1 0 C1 56.76 1 113.52 1 172 C-21.70961479 137.93557781 -18.37342142 76.12282026 -10.8984375 38.19921875 C-4.91808348 9.83616697 -4.91808348 9.83616697 0 0 Z " fill="#49D88B" transform="translate(20,181)"/>
<path d="M0 0 C0.99 0.03287109 0.99 0.03287109 2 0.06640625 C2.66 0.06511719 3.32 0.06382812 4 0.0625 C7.00860644 0.91454674 8.09619797 2.1412716 10 4.62890625 C10.37002833 7.54587556 10.51104931 10.09580209 10.46875 13.0078125 C10.47579956 13.81629135 10.48284912 14.6247702 10.4901123 15.45774841 C10.51214283 18.03595729 10.50913856 20.61313067 10.5 23.19140625 C10.48798171 26.58910413 10.50158974 29.98525134 10.53125 33.3828125 C10.51993042 34.16411026 10.50861084 34.94540802 10.49694824 35.75038147 C10.52327885 40.09929185 10.52327885 40.09929185 12.80664062 43.65209961 C16.15239422 45.14212189 18.51642747 44.5156338 22 43.62890625 C23.8383377 42.64497166 23.8383377 42.64497166 25 40.62890625 C25.28300129 37.88111542 25.3933698 35.34858357 25.37109375 32.6015625 C25.38847524 30.98893016 25.40605963 29.3763 25.42382812 27.76367188 C25.43390458 25.2246501 25.43749621 22.68576947 25.43579102 20.14672852 C25.43936159 17.69374548 25.46670445 15.24185171 25.49609375 12.7890625 C25.48791122 12.03166275 25.4797287 11.274263 25.47129822 10.49391174 C25.52047247 7.01117589 25.73101571 4.99671736 27.81274414 2.15014648 C31.02073947 -0.08101982 33.18874373 0.08444107 37 0.62890625 C39.42314981 2.26707679 40.78403121 3.5509792 41.37133789 6.4822998 C41.5311405 8.82691624 41.55419687 11.13828188 41.53125 13.48828125 C41.5350769 14.35148987 41.53890381 15.21469849 41.54284668 16.10406494 C41.54556597 17.92974005 41.53820351 19.75545411 41.52148438 21.58105469 C41.50017805 24.35571879 41.5212301 27.12776285 41.546875 29.90234375 C41.54422969 31.68099524 41.53910051 33.45964512 41.53125 35.23828125 C41.53934692 36.05939392 41.54744385 36.88050659 41.55578613 37.72650146 C41.44965851 44.35337448 39.70904273 49.78825011 35.0703125 54.65234375 C27.22142277 60.10558842 20.58487893 61.61391357 11 60.62890625 C4.47730376 58.8851059 -0.44513516 54.26865128 -4 48.62890625 C-5.80307672 43.36910916 -6.3193375 38.73288058 -6.3359375 33.24609375 C-6.3425943 32.46879913 -6.3492511 31.69150452 -6.35610962 30.89065552 C-6.36617411 29.25867053 -6.37092858 27.6266449 -6.37060547 25.99462891 C-6.37500063 23.50354728 -6.41144262 21.01420906 -6.44921875 18.5234375 C-6.45508399 16.93099559 -6.45905534 15.33854535 -6.4609375 13.74609375 C-6.47530853 13.0064035 -6.48967957 12.26671326 -6.50448608 11.50460815 C-6.4720318 7.82431368 -6.1022718 5.78834691 -4.09619141 2.66088867 C-2 0.62890625 -2 0.62890625 0 0 Z " fill="#E6EEFE" transform="translate(197,141.37109375)"/>
<path d="M0 0 C0.71353638 -0.00619858 1.42707275 -0.01239716 2.16223145 -0.01878357 C3.66494386 -0.02586079 5.16773503 -0.0227443 6.67041016 -0.01000977 C8.96273644 0.00386984 11.2509861 -0.03024982 13.54296875 -0.06835938 C15.00781349 -0.0693106 16.47266332 -0.06745157 17.9375 -0.0625 C18.61784302 -0.07575821 19.29818604 -0.08901642 19.99914551 -0.10267639 C23.79732609 -0.02877802 25.392895 0.50608728 28.40112305 2.89819336 C30.46875 5.56640625 30.46875 5.56640625 31.08203125 8.88671875 C30.29031541 13.6370138 28.38971212 16.55012407 25.65625 20.44140625 C24.65316244 21.926757 23.6505739 23.41244486 22.6484375 24.8984375 C21.86678223 26.04046631 21.86678223 26.04046631 21.06933594 27.20556641 C18.40483633 31.13566269 15.84838357 35.13483438 13.28125 39.12890625 C12.35075784 40.56803007 11.41981477 42.00686252 10.48828125 43.4453125 C9.82183594 44.47527344 9.15539062 45.50523437 8.46875 46.56640625 C9.02336914 46.54545898 9.57798828 46.52451172 10.14941406 46.50292969 C12.67234023 46.41957077 15.19497649 46.36768757 17.71875 46.31640625 C18.59144531 46.28289062 19.46414063 46.249375 20.36328125 46.21484375 C26.82283716 46.11622458 26.82283716 46.11622458 30.046875 48.36328125 C32.13621523 51.60061061 32.00678486 53.80016225 31.46875 57.56640625 C29.95898438 59.75415039 29.95898438 59.75415039 27.46875 61.56640625 C24.55701274 61.95214762 22.03243515 62.10458289 19.125 62.0625 C17.91583923 62.06468285 17.91583923 62.06468285 16.68225098 62.06690979 C14.98100158 62.06525268 13.2797369 62.05371224 11.57861328 62.03295898 C8.97754104 62.00400411 6.37850785 62.01235282 3.77734375 62.02539062 C2.12238595 62.01915279 0.46743457 62.0107615 -1.1875 62 C-1.96363647 62.00293564 -2.73977295 62.00587128 -3.53942871 62.00889587 C-6.73045313 61.95326364 -9.15105947 61.76044277 -12.01586914 60.29833984 C-14.40041754 57.57303191 -14.17206687 55.5045616 -14.00732422 52.00537109 C-13.1491132 47.60869001 -10.71360352 44.43104998 -8.09375 40.87890625 C-6.99496085 39.31589998 -5.89731836 37.75208703 -4.80078125 36.1875 C-4.25115723 35.41647949 -3.7015332 34.64545898 -3.13525391 33.85107422 C-0.74559585 30.44735731 1.49158735 26.95274822 3.71875 23.44140625 C4.45300166 22.29288989 5.18736331 21.14444383 5.921875 19.99609375 C6.43234375 19.19429687 6.9428125 18.3925 7.46875 17.56640625 C6.37175781 17.55222656 5.27476562 17.53804687 4.14453125 17.5234375 C2.69006302 17.47651917 1.23563723 17.42827187 -0.21875 17.37890625 C-0.93998047 17.37310547 -1.66121094 17.36730469 -2.40429688 17.36132812 C-6.51984391 17.19219606 -8.17024505 16.84547104 -11.54296875 14.23828125 C-13.53125 11.56640625 -13.53125 11.56640625 -13.65625 8.00390625 C-11.39837862 1.1048548 -6.72466877 -0.0490245 0 0 Z " fill="#E6EDFE" transform="translate(280.53125,140.43359375)"/>
<path d="M0 0 C1.04608429 -0.0071553 2.09216858 -0.01431061 3.16995239 -0.02168274 C6.62546548 -0.03858197 10.07968353 -0.01915861 13.53515625 0.00219727 C15.93741971 0.00136869 18.33968312 -0.00109027 20.74194336 -0.00511169 C25.77572705 -0.00797056 30.80906602 0.00674097 35.84277344 0.03417969 C42.29600336 0.06826186 48.74843794 0.06224467 55.20170593 0.04351711 C60.16197338 0.03294993 65.12205568 0.04188255 70.08230591 0.05690193 C72.46175588 0.06208622 74.84122517 0.06159897 77.22067261 0.05535698 C80.54597571 0.04990845 83.87013922 0.07027006 87.1953125 0.09765625 C88.17936066 0.09113037 89.16340881 0.08460449 90.17727661 0.07788086 C94.51540056 0.13864893 96.94282932 0.2291169 100.70629883 2.53944397 C102.73749118 4.78574751 103.28094289 5.64682755 103.22265625 8.63110352 C103.24199219 9.62110352 103.24199219 9.62110352 103.26171875 10.63110352 C102.17617414 13.90050845 100.52347252 14.83499688 97.59765625 16.63110352 C94.13266947 17.23064899 90.70486769 17.18782498 87.1953125 17.16455078 C85.62618607 17.17747414 85.62618607 17.17747414 84.02536011 17.19065857 C80.57003996 17.21334784 77.11552881 17.20657423 73.66015625 17.19750977 C71.25789142 17.20274376 68.85562866 17.20901942 66.45336914 17.21629333 C61.41966071 17.22670287 56.38623488 17.22212745 51.35253906 17.20751953 C44.89923186 17.19032563 38.44681448 17.21383273 31.99360657 17.24900913 C27.03334646 17.2709592 22.07330008 17.26954744 17.11300659 17.26124382 C14.73354109 17.26042311 12.35406009 17.2673093 9.97463989 17.28201485 C6.64920169 17.29941688 3.32537315 17.28495286 0 17.26220703 C-1.47607224 17.27974533 -1.47607224 17.27974533 -2.98196411 17.29763794 C-7.61160771 17.23314557 -9.72577047 17.14258519 -13.51342773 14.27915955 C-15.40234375 11.63110352 -15.40234375 11.63110352 -16.02734375 8.63110352 C-14.20103905 -0.13515902 -7.44452155 -0.08845383 0 0 Z " fill="#3B579F" transform="translate(190.40234375,38.368896484375)"/>
<path d="M0 0 C11.88 0 23.76 0 36 0 C36 18.41062436 30.58218821 31.67330362 18 45 C8.7199376 43.18253971 1.22823292 41.62704866 -4.89453125 33.83984375 C-7.51608366 29.47676535 -9.28497556 24.41349674 -8.68359375 19.3203125 C-8 17 -8 17 -6.1875 14.9375 C-2.93388423 10.88824013 -2.93388423 10.88824013 0 0 Z " fill="#E8EEFE" transform="translate(436,98)"/>
<path d="M0 0 C4.09389481 0.58484212 4.98356815 1.32045778 7.5 4.5 C8.00793457 6.92822266 8.00793457 6.92822266 8.01757812 9.6640625 C8.03018677 10.69192871 8.04279541 11.71979492 8.05578613 12.77880859 C8.04768921 13.88305176 8.03959229 14.98729492 8.03125 16.125 C8.0350769 17.26404785 8.03890381 18.4030957 8.04284668 19.57666016 C8.04556774 21.98405847 8.0381931 24.39148626 8.02148438 26.79882812 C8.00007925 30.48634682 8.02128132 34.17191699 8.046875 37.859375 C8.04423176 40.19792097 8.03910687 42.53646573 8.03125 44.875 C8.03934692 45.97924316 8.04744385 47.08348633 8.05578613 48.22119141 C8.04317749 49.24905762 8.03056885 50.27692383 8.01757812 51.3359375 C8.01439575 52.23876465 8.01121338 53.1415918 8.00793457 54.07177734 C7.33377643 57.29464534 6.06612201 58.49478289 3.5 60.5 C0 61 0 61 -3.5 60.5 C-6.06612201 58.49478289 -7.33377643 57.29464534 -8.00793457 54.07177734 C-8.01111694 53.1689502 -8.01429932 52.26612305 -8.01757812 51.3359375 C-8.03018677 50.30807129 -8.04279541 49.28020508 -8.05578613 48.22119141 C-8.04768921 47.11694824 -8.03959229 46.01270508 -8.03125 44.875 C-8.0350769 43.73595215 -8.03890381 42.5969043 -8.04284668 41.42333984 C-8.04556774 39.01594153 -8.0381931 36.60851374 -8.02148438 34.20117188 C-8.00007925 30.51365318 -8.02128132 26.82808301 -8.046875 23.140625 C-8.04423176 20.80207903 -8.03910687 18.46353427 -8.03125 16.125 C-8.03934692 15.02075684 -8.04744385 13.91651367 -8.05578613 12.77880859 C-8.04317749 11.75094238 -8.03056885 10.72307617 -8.01757812 9.6640625 C-8.01439575 8.76123535 -8.01121338 7.8584082 -8.00793457 6.92822266 C-7.03527884 2.2783626 -4.52938135 0.64705448 0 0 Z " fill="#E8EEFE" transform="translate(252.5,141.5)"/>
<path d="M0 0 C0 3.3 0 6.6 0 10 C-1.1446875 10.4021875 -1.1446875 10.4021875 -2.3125 10.8125 C-5.01392832 12.00615437 -6.22339596 12.6917185 -8 15 C-8.50479657 17.6068023 -8.50479657 17.6068023 -8.51171875 20.54296875 C-8.54716797 21.61611328 -8.58261719 22.68925781 -8.61914062 23.79492188 C-8.64169922 24.91447266 -8.66425781 26.03402344 -8.6875 27.1875 C-8.72166016 28.31865234 -8.75582031 29.44980469 -8.79101562 30.61523438 C-8.87356314 33.4100574 -8.94269182 36.20456398 -9 39 C-11.55763753 40.40204542 -12.83009875 41 -15.8125 41 C-20.80198596 39.43467107 -24.66527333 36.44992593 -27.1875 31.8203125 C-28.26571121 28.0776755 -28.29048119 24.48420697 -28.25 20.625 C-28.25773437 19.89539063 -28.26546875 19.16578125 -28.2734375 18.4140625 C-28.25621519 13.59181619 -27.72949813 9.52197683 -26 5 C-23.46104584 3.49735366 -21.76626104 2.74963563 -19 2 C-18.30390625 1.79632813 -17.6078125 1.59265625 -16.890625 1.3828125 C-11.19457859 -0.09169597 -5.86735611 -0.16527764 0 0 Z " fill="#E7EDFD" transform="translate(409,34)"/>
<path d="M0 0 C5.41914846 2.35132512 7.68751589 4.88366536 9.91015625 10.34765625 C10.16015625 14.28515625 10.16015625 14.28515625 9.91015625 17.34765625 C9.37390625 17.01765625 8.83765625 16.68765625 8.28515625 16.34765625 C5.28081081 15.0826687 3.14248183 15.00379183 -0.08984375 15.34765625 C-2.10935437 16.2836294 -2.10935437 16.2836294 -3.08984375 18.34765625 C-3.37480068 22.26581404 -3.11638201 25.58092313 -2.08984375 29.34765625 C-6.69014355 29.23520448 -10.74506284 29.09089273 -14.46484375 26.16015625 C-17.68934857 22.70532966 -19.88204139 20.05403461 -20.25390625 15.2109375 C-20.01584625 9.81796289 -18.37815602 6.69458707 -14.7578125 2.7578125 C-10.27213519 -1.03452827 -5.67818822 -1.7724438 0 0 Z " fill="#24A0F4" transform="translate(163.08984375,157.65234375)"/>
<path d="M0 0 C4.353911 0.50297889 5.40254753 2.05757696 8.18359375 5.375 C8.82699707 6.12668457 8.82699707 6.12668457 9.48339844 6.89355469 C10.75036789 8.37658176 11.99856352 9.8755837 13.24609375 11.375 C14.4922834 12.79501964 15.74177628 14.2121546 16.99609375 15.625 C20.10212182 19.18875853 23.17145892 22.78416731 26.24609375 26.375 C21.70529484 26.60790742 17.16603281 26.74962237 12.62109375 26.875 C10.69330078 26.97554687 10.69330078 26.97554687 8.7265625 27.078125 C-0.52905148 27.2699512 -0.52905148 27.2699512 -3.96923828 24.75634766 C-7.77503185 19.98525925 -8.55150037 15.93635298 -8.2265625 9.9375 C-7.35338859 5.20359847 -5.03910216 0.68617561 0 0 Z " fill="#E7EEFE" transform="translate(159.75390625,222.625)"/>
<path d="M0 0 C12.21 0 24.42 0 37 0 C37 4.29 37 8.58 37 13 C38.38716923 16.5384681 38.38716923 16.5384681 40 19 C39.67 19.66 39.34 20.32 39 21 C11.27037067 8.76644133 11.27037067 8.76644133 0 1 C0 0.67 0 0.34 0 0 Z " fill="#D4DDFB" transform="translate(121,475)"/>
<path d="M0 0 C3.34139976 0.02999461 4.22721051 0.29795352 7.1875 2.1875 C10.34695358 5.4426946 10.58421243 7.73663238 10.54296875 12.2734375 C10.08745033 15.44384567 8.49684343 17.1317402 6.25 19.3125 C3.03305636 20.92097182 -0.27137222 20.92559149 -3.75 20.3125 C-7.66771408 17.14498649 -9.55848291 15.00423433 -10.125 10 C-9.65786625 5.40651813 -8.22959782 4.19802015 -4.75 1.3125 C-3.75 0.3125 -3.75 0.3125 0 0 Z " fill="#FAD941" transform="translate(109.75,36.6875)"/>
<path d="M0 0 C3.5386994 1.65139305 4.81070153 2.71605229 7 6 C7.46229036 10.99273591 7.08578614 13.99990685 4 18 C0.31502204 20.45665197 -2.71971786 20.70086491 -7 20 C-9.8100346 18.20636089 -11.50940468 16.98119065 -13 14 C-13.5811138 6.91041162 -13.5811138 6.91041162 -11.125 3.0625 C-7.50882222 -0.44731961 -4.97588405 -0.33734807 0 0 Z " fill="#FA4055" transform="translate(85,37)"/>
<path d="M0 0 C2.94413861 0.89959791 3.84757178 1.80402086 5.75 4.25 C7.23046098 7.50701415 7.4430062 9.45595039 7 13 C5.33237678 16.49406769 4.25993978 17.82670681 1 20 C-3.63278267 20.82418418 -7.02726907 20.59554955 -11.0625 18.125 C-13.78240438 13.73805744 -14.15390567 10.02773185 -13 5 C-9.9036157 0.09375727 -5.50519449 -0.71363632 0 0 Z " fill="#37C374" transform="translate(142,37)"/>
<path d="M0 0 C2.5 1.5625 2.5 1.5625 4 4 C4.625 7.4375 4.625 7.4375 4 11 C1.375 14 1.375 14 -2 16 C-5.6623602 16.0732472 -7.36878996 15.43188056 -10.375 13.375 C-12.65243688 10.0464384 -12.56416593 7.9491615 -12 4 C-9.10500071 -0.70437385 -5.08928147 -1.01159898 0 0 Z " fill="#E4EBFC" transform="translate(413,90)"/>
</svg>
